<?xml version="1.0" standalone="no"?>
<!DOCTYPE svg PUBLIC "-//W3C//DTD SVG 20010904//EN"
 "http://www.w3.org/TR/2001/REC-SVG-20010904/DTD/svg10.dtd">
<svg version="1.0" xmlns="http://www.w3.org/2000/svg"
 width="1200.000000pt" height="1200.000000pt" viewBox="0 0 1200.000000 1200.000000"
 preserveAspectRatio="xMidYMid meet">

<g transform="translate(0.000000,1200.000000) scale(0.100000,-0.100000)"
fill="#000000" stroke="none">
<path d="M5500 11063 c-41 -1 -124 -8 -185 -14 -60 -7 -123 -14 -140 -16 -16
-1 -52 -7 -80 -12 -27 -5 -81 -14 -120 -21 -77 -13 -225 -59 -295 -93 -25 -11
-47 -21 -50 -22 -3 0 -21 -10 -40 -20 -27 -15 -56 -20 -125 -21 -119 -1 -169
-10 -232 -39 -28 -14 -56 -25 -61 -25 -13 0 -90 -85 -92 -101 -7 -48 19 -84
54 -73 11 4 19 4 16 1 -15 -16 -125 -97 -131 -97 -4 0 -21 -11 -36 -25 -34
-30 -37 -33 -88 -70 -69 -52 -205 -187 -256 -256 -27 -36 -60 -92 -75 -123
-14 -31 -33 -62 -42 -69 -26 -19 -72 -102 -72 -129 0 -9 -4 -19 -10 -23 -5 -3
-7 -12 -4 -20 3 -8 2 -20 -2 -27 -4 -7 -9 -20 -9 -29 -1 -8 -7 -36 -14 -62
-10 -35 -11 -54 -2 -78 12 -34 8 -49 -14 -49 -25 0 -27 -20 -2 -31 22 -10 24
-17 25 -82 1 -81 2 -87 30 -157 3 -8 7 -26 7 -40 1 -14 4 -32 7 -40 3 -8 13
-37 23 -65 18 -55 32 -87 94 -215 23 -47 41 -89 41 -93 0 -4 5 -13 11 -20 5
-7 30 -43 55 -80 53 -83 51 -104 -15 -149 -25 -18 -52 -38 -59 -45 -8 -7 -22
-18 -32 -23 -33 -18 -258 -227 -348 -324 -21 -22 -59 -63 -87 -92 -55 -58
-102 -121 -131 -174 -10 -19 -23 -38 -27 -41 -13 -9 -25 -116 -15 -133 11 -20
126 -21 178 -3 41 15 176 105 204 136 11 11 23 21 27 21 9 0 28 13 162 113 35
26 69 47 75 47 6 0 26 15 44 32 40 39 129 100 136 94 2 -3 0 -23 -5 -44 -16
-64 -23 -420 -10 -497 5 -27 10 -59 12 -70 2 -11 4 -20 5 -20 1 0 4 -16 6 -35
3 -19 10 -53 16 -75 6 -22 13 -49 15 -59 2 -11 8 -25 14 -32 5 -6 9 -16 8 -20
-1 -5 1 -16 4 -24 3 -8 13 -39 21 -69 9 -30 22 -64 29 -75 8 -12 22 -45 31
-73 10 -29 21 -53 26 -53 5 0 13 -15 19 -33 23 -68 108 -145 146 -131 14 6 95
115 95 128 0 3 11 29 24 58 34 75 55 126 53 130 -1 2 1 1 4 -2 4 -3 17 -34 29
-70 29 -82 85 -166 147 -219 44 -37 82 -53 83 -33 1 4 18 27 40 51 35 40 40
43 54 28 9 -8 21 -18 28 -20 13 -6 3 -17 -46 -52 -13 -10 -19 -28 -20 -60 -2
-34 -8 -49 -22 -58 -11 -7 -35 -21 -53 -32 -19 -11 -49 -35 -68 -52 -19 -18
-38 -33 -41 -33 -15 -1 -100 -86 -106 -107 -4 -12 -38 -55 -77 -94 -38 -40
-69 -78 -69 -86 0 -7 -9 -22 -19 -32 -11 -11 -29 -39 -40 -63 -11 -23 -30 -60
-42 -80 -41 -73 -68 -232 -49 -283 9 -23 -6 -81 -27 -106 -16 -19 -50 -172
-43 -194 1 -5 3 -36 5 -68 1 -51 7 -68 50 -133 27 -41 54 -74 61 -74 17 0 22
-20 13 -52 -9 -34 -3 -150 11 -197 33 -107 150 -292 202 -318 12 -7 37 -19 55
-27 37 -18 45 -38 35 -86 -12 -50 -4 -511 9 -600 7 -41 18 -87 25 -102 9 -17
10 -29 4 -33 -6 -3 -10 -3 -10 2 0 9 -20 -18 -20 -27 0 -20 90 -35 235 -40
l160 -5 3 -30 c5 -48 23 -87 61 -128 56 -59 109 -79 228 -85 82 -3 103 -7 109
-21 4 -9 9 -88 11 -176 3 -145 9 -279 16 -345 2 -21 -2 -25 -23 -24 -77 4
-235 -47 -213 -69 3 -4 -14 -7 -38 -7 -76 -1 -174 -23 -174 -40 -1 -39 -51
-54 -87 -26 -24 18 -149 20 -212 4 -48 -12 -111 -61 -101 -78 3 -5 0 -10 -6
-12 -15 -5 7 -58 25 -58 8 0 16 -4 18 -9 3 -10 80 -26 187 -38 l64 -8 -54 -34
c-92 -57 -123 -79 -160 -113 -42 -38 -55 -73 -30 -84 28 -12 114 -10 170 4 29
7 55 11 58 8 3 -3 -11 -22 -30 -43 -52 -55 -77 -85 -77 -92 0 -4 -15 -23 -32
-42 -18 -19 -46 -52 -62 -73 -16 -21 -41 -42 -57 -48 -32 -11 -37 -25 -15 -42
7 -6 17 -24 20 -40 7 -27 5 -28 -20 -23 -91 17 -262 -79 -331 -187 -70 -109
-77 -132 -77 -246 0 -64 4 -91 17 -111 17 -25 17 -26 -6 -36 -22 -10 -23 -16
-22 -89 2 -114 22 -194 52 -205 38 -14 113 -11 113 5 0 9 8 12 25 8 14 -2 25
-8 25 -12 0 -5 8 -11 18 -14 9 -3 30 -18 46 -33 37 -34 140 -50 194 -31 27 10
35 10 42 -2 13 -21 87 -40 158 -40 66 0 153 17 163 32 3 5 4 29 2 53 -4 40 -2
45 16 45 25 0 33 -49 11 -67 -13 -11 -13 -12 4 -13 11 0 16 -5 13 -14 -9 -24
18 -38 60 -31 21 3 83 16 137 28 85 18 104 26 132 55 24 25 44 35 85 41 30 5
79 19 109 31 102 41 193 70 202 64 11 -7 161 26 168 37 3 5 37 11 75 15 87 8
164 46 171 83 5 24 10 26 59 28 41 1 61 8 95 32 69 50 107 109 109 169 1 31
14 28 29 -8 17 -38 99 -120 120 -120 13 0 12 -3 -4 -15 -18 -14 -17 -14 12
-15 21 0 43 -10 64 -30 18 -16 41 -30 51 -30 21 0 27 -20 7 -20 -7 0 -5 -5 5
-11 10 -6 35 -8 56 -4 l39 6 6 -44 c8 -54 41 -142 67 -178 10 -15 19 -32 19
-38 0 -6 15 -11 34 -11 30 0 35 -4 41 -30 8 -35 45 -64 123 -96 49 -20 59 -21
93 -9 40 14 49 12 49 -15 0 -48 239 -98 285 -60 7 6 19 8 28 4 8 -3 29 2 46
10 39 21 39 21 43 -11 l3 -28 92 -3 c76 -2 100 1 135 18 23 11 50 20 60 20 10
0 18 7 18 15 0 22 39 18 58 -6 24 -29 88 -35 153 -14 30 10 59 21 64 25 12 9
64 19 161 29 83 10 151 48 139 79 -11 29 6 150 23 157 11 4 12 2 4 -7 -12 -15
-19 -84 -10 -93 15 -15 46 8 57 43 15 49 17 122 7 257 -8 112 -17 148 -41 175
-7 8 -14 18 -14 23 1 66 -68 212 -133 282 -15 17 -28 33 -28 36 0 4 -12 10
-26 13 -14 4 -47 23 -74 44 -26 20 -62 45 -79 54 -17 10 -34 25 -38 35 -4 10
-9 20 -12 23 -4 3 -25 34 -49 70 -80 122 -111 158 -164 186 -25 13 -28 21 -29
64 -1 47 -4 66 -8 73 -2 1 -4 13 -7 27 -8 47 -36 125 -51 142 -14 15 -12 17
24 23 21 4 54 11 73 17 43 13 143 76 137 86 -3 4 -1 16 3 26 4 14 -1 28 -18
48 -29 32 -90 47 -209 53 l-78 3 -23 43 c-13 24 -30 54 -38 67 -8 12 -12 27
-9 32 10 16 -25 70 -51 80 -14 6 -39 10 -55 10 -16 0 -29 4 -29 9 0 15 -83 31
-185 33 -55 1 -107 0 -115 -2 -9 -3 -16 1 -16 10 -1 8 -3 17 -4 20 -1 3 -3 39
-5 80 -4 116 -23 262 -43 327 l-19 59 66 -9 c36 -5 113 -7 171 -5 86 4 112 9
145 27 36 21 105 106 105 130 0 5 5 22 12 38 18 45 19 61 3 67 -10 3 -15 19
-15 44 0 38 1 40 41 46 31 5 46 3 60 -9 30 -28 53 -5 74 71 18 67 20 75 30
149 4 22 10 63 16 90 5 28 11 68 13 90 4 47 14 107 18 109 2 1 35 15 73 30
121 48 218 98 265 135 86 69 217 209 246 265 16 31 33 56 37 56 5 0 6 4 3 9
-3 5 2 19 12 32 34 44 95 202 136 349 38 138 55 208 61 250 3 25 7 56 10 70
13 80 5 476 -11 520 -3 8 -8 53 -10 100 -4 76 -19 202 -30 255 -3 11 -9 46
-15 78 -5 32 -23 97 -40 145 -17 48 -33 97 -36 110 -3 12 -9 22 -13 22 -4 0
-15 20 -24 45 -17 44 -108 166 -129 174 -6 2 -23 15 -36 28 -14 12 -31 23 -38
23 -6 0 -13 5 -15 11 -5 16 -77 28 -132 22 -87 -10 -148 -51 -162 -110 -4 -16
-11 -33 -16 -40 -17 -21 -25 -158 -12 -212 6 -28 9 -53 6 -56 -3 -2 1 -11 8
-20 7 -8 9 -15 5 -15 -4 0 0 -11 9 -25 9 -13 16 -31 16 -40 0 -8 4 -15 10 -15
5 0 9 -3 8 -7 -3 -11 13 -57 22 -63 5 -3 10 -14 12 -25 1 -11 6 -22 10 -25 4
-3 9 -17 11 -30 3 -14 10 -38 16 -54 7 -16 9 -31 7 -34 -3 -2 0 -14 6 -26 7
-11 14 -30 15 -41 2 -11 9 -38 15 -60 6 -22 10 -44 9 -49 -1 -6 5 -28 13 -50
8 -23 17 -58 20 -78 3 -21 11 -59 17 -85 6 -27 12 -91 14 -143 1 -52 4 -96 5
-97 4 -6 2 -101 -2 -109 -3 -5 -4 -27 -2 -49 2 -43 -18 -174 -37 -233 -34
-109 -97 -264 -127 -315 -34 -57 -93 -113 -165 -156 -21 -13 -40 -21 -43 -19
-2 3 -6 72 -9 154 -3 82 -7 165 -10 184 -14 95 -13 136 5 170 27 52 40 133 42
255 1 103 -14 207 -34 230 -4 5 -8 17 -8 26 0 9 -12 25 -27 34 -25 17 -25 19
-8 31 15 11 28 56 26 89 -4 70 -9 95 -18 107 -6 7 -14 27 -17 45 -4 17 -14 37
-22 44 -8 6 -14 16 -14 22 0 5 -11 25 -25 43 -14 18 -25 36 -25 41 -1 23 -172
163 -199 163 -6 0 -8 7 -5 15 11 28 -64 164 -120 219 -57 55 -93 86 -102 86
-5 0 -16 8 -58 45 -16 14 -35 25 -42 25 -7 0 -28 9 -46 19 -18 11 -63 26 -100
33 -59 11 -68 16 -68 34 0 27 -20 84 -29 84 -4 0 -16 6 -26 14 -19 13 -18 15
9 56 15 23 28 50 29 60 1 16 4 17 16 7 44 -35 76 -71 73 -83 -2 -9 7 -14 26
-14 23 0 32 7 47 38 10 20 18 40 17 45 -1 4 3 7 10 7 6 0 9 3 6 6 -9 8 27 109
38 109 5 0 60 -17 121 -38 62 -20 119 -37 128 -37 24 0 18 16 -11 29 -19 8
-24 16 -19 29 12 30 27 109 28 145 0 15 4 27 8 27 4 0 27 -20 53 -45 56 -56
50 -53 74 -32 28 25 68 113 77 167 11 70 13 221 3 258 -5 18 -8 38 -6 43 3 10
99 -56 106 -73 2 -4 9 -8 15 -8 7 0 34 -11 62 -24 81 -40 138 -63 172 -71 18
-3 37 -14 42 -22 5 -10 15 -14 26 -9 15 5 16 13 10 49 -4 23 -9 62 -11 86 -3
25 -10 51 -16 58 -6 7 -8 13 -5 13 3 0 1 15 -4 33 -5 17 -12 48 -15 67 -3 19
-10 51 -16 70 -6 19 -12 44 -14 55 -1 11 -9 38 -17 60 -8 22 -27 78 -42 125
-15 47 -30 94 -35 105 -18 46 -53 132 -68 165 -9 19 -16 42 -17 50 0 8 -12 35
-25 60 -13 25 -25 47 -25 50 -6 22 -26 59 -44 79 -12 13 -21 32 -21 43 0 10
-4 18 -10 18 -5 0 -10 7 -10 15 0 8 -4 15 -9 15 -5 0 -12 13 -16 30 -3 16 -15
32 -25 35 -11 4 -17 12 -13 21 3 7 0 14 -6 14 -6 0 -11 6 -11 13 0 12 -33 55
-77 104 -13 13 -23 28 -23 32 0 4 -11 20 -25 35 -14 15 -25 28 -25 30 0 5 -96
110 -147 162 -24 24 -43 46 -43 48 0 13 24 56 32 56 4 0 8 7 8 15 0 8 4 23 9
33 22 43 49 119 55 152 2 14 9 44 15 68 7 24 14 58 17 75 7 44 5 307 -2 318
-3 5 -7 26 -9 46 -5 47 -19 126 -25 143 -1 3 -2 9 -1 13 1 4 -6 22 -15 39 -9
17 -18 48 -20 68 -2 20 -10 49 -19 66 -8 16 -15 36 -15 45 0 9 -7 22 -15 29
-8 7 -14 18 -13 24 1 6 -5 25 -15 42 -9 17 -14 34 -10 37 3 4 2 14 -2 24 -5
10 -9 23 -11 28 -1 6 -5 17 -8 25 -5 11 5 20 34 33 73 31 13 52 -67 23 -21 -7
-56 -19 -78 -25 -67 -21 -309 -145 -387 -199 -26 -17 -49 -32 -53 -32 -6 0
-19 -10 -64 -50 -16 -14 -43 -36 -61 -50 -18 -14 -41 -33 -51 -42 -22 -21 -39
-23 -39 -5 0 7 -18 30 -40 52 -21 21 -37 42 -34 47 3 4 -2 8 -10 8 -9 0 -16 5
-16 12 0 33 -338 328 -376 328 -8 0 -14 5 -14 10 0 6 -8 14 -18 18 -9 4 -42
21 -72 38 -34 20 -77 35 -110 39 -30 3 -62 7 -70 9 -8 1 -49 1 -90 -1z m1540
-295 c12 -29 33 -68 46 -85 24 -32 53 -98 60 -138 2 -11 14 -63 28 -115 13
-52 30 -120 37 -150 15 -66 21 -314 9 -385 -5 -27 -11 -68 -15 -90 -10 -69
-38 -168 -60 -212 l-22 -42 -76 77 c-43 43 -77 80 -77 84 0 3 21 14 48 24 26
10 49 20 52 24 3 3 18 12 34 20 42 21 96 74 96 94 0 14 -5 14 -42 -6 -24 -13
-45 -26 -48 -29 -6 -7 -33 -22 -153 -83 -91 -46 -117 -74 -59 -63 20 4 34 -3
63 -33 21 -21 34 -41 29 -46 -5 -5 29 -49 76 -98 46 -49 84 -95 84 -102 0 -8
7 -14 15 -14 8 0 15 -3 15 -7 0 -5 19 -28 41 -53 22 -25 76 -92 120 -150 43
-58 83 -110 89 -117 5 -7 15 -24 22 -38 6 -14 14 -25 18 -25 4 0 13 -14 20
-31 7 -17 18 -36 24 -42 15 -16 76 -141 76 -156 0 -6 3 -11 8 -11 4 0 16 -20
27 -45 11 -25 23 -45 28 -45 5 0 7 -7 3 -15 -3 -8 0 -15 6 -15 6 0 9 -3 5 -6
-3 -4 4 -25 15 -48 12 -22 22 -45 23 -51 1 -11 10 -36 30 -81 8 -18 17 -48 20
-68 4 -20 11 -39 16 -42 5 -3 9 -16 9 -29 0 -13 4 -26 8 -29 5 -3 17 -36 26
-73 9 -37 28 -104 42 -149 13 -44 24 -89 24 -100 0 -12 3 -24 8 -28 4 -4 12
-34 18 -66 9 -51 8 -57 -5 -49 -9 4 -50 24 -91 44 -92 45 -162 85 -187 107
-22 20 -136 78 -152 78 -8 0 -10 -8 -6 -21 4 -12 9 -29 10 -38 2 -9 4 -16 6
-16 1 0 3 -9 4 -20 2 -11 7 -48 12 -82 5 -34 6 -67 3 -73 -4 -7 -5 -26 -3 -43
2 -18 -4 -66 -14 -107 -30 -133 -25 -130 -88 -58 -35 40 -55 72 -57 92 -2 25
-8 32 -30 34 -26 3 -38 15 -103 97 -31 40 -113 125 -120 125 -6 0 -14 -78 -20
-204 -8 -166 -12 -189 -59 -361 -2 -5 -8 -23 -14 -38 -7 -16 -12 -33 -12 -38
0 -5 -2 -9 -5 -9 -11 0 -55 32 -55 40 0 5 -15 24 -32 43 -18 19 -50 55 -71 79
-21 23 -56 63 -77 88 -22 24 -40 47 -40 50 0 4 -16 24 -35 46 -19 21 -35 44
-35 51 0 6 -4 13 -8 15 -5 2 -26 32 -48 68 -21 36 -43 68 -47 71 -5 3 -8 10
-8 15 0 5 -12 29 -27 53 -15 23 -26 49 -24 56 1 7 -5 18 -13 25 -8 7 -15 19
-15 26 0 8 -4 14 -10 14 -5 0 -10 4 -10 9 0 5 -5 22 -12 38 -6 15 -12 30 -13
33 -1 3 -11 26 -23 51 -27 58 -46 143 -38 174 3 13 15 26 26 30 10 3 28 20 39
38 11 18 30 43 43 57 23 25 58 90 65 120 6 28 10 130 4 135 -11 12 -10 45 3
70 8 15 12 34 9 41 -3 8 -1 14 4 14 11 0 13 20 14 158 l1 112 41 -34 c23 -19
61 -55 83 -80 42 -46 64 -57 64 -33 0 27 -53 88 -142 163 -51 43 -94 82 -96
86 -2 4 -10 8 -17 8 -8 0 -20 8 -27 18 -7 10 -19 22 -27 27 -15 9 -15 12 12
-116 15 -69 14 -183 -1 -259 -5 -25 -10 -39 -11 -32 0 6 -7 12 -15 12 -7 0
-19 7 -26 15 -7 8 -21 15 -31 15 -11 0 -27 4 -37 9 -29 15 -87 31 -111 31 -39
0 -92 39 -171 125 -84 91 -110 124 -110 140 -6 113 -11 135 -36 135 -10 0 -14
-14 -15 -52 -2 -158 -18 -226 -69 -290 -11 -15 -17 -33 -14 -41 4 -12 -5 -16
-43 -20 -70 -7 -172 -35 -208 -57 -18 -11 -38 -20 -46 -20 -16 0 -79 60 -79
76 0 6 -7 14 -15 18 -8 3 -15 14 -15 24 0 10 -4 22 -9 28 -5 5 -11 35 -14 67
-5 57 -16 84 -24 60 -2 -6 -12 -20 -22 -31 -15 -18 -16 -29 -8 -79 8 -50 6
-71 -16 -155 -15 -54 -52 -148 -83 -212 l-57 -115 -31 22 c-38 26 -135 124
-156 156 -8 13 -21 29 -27 37 -7 7 -13 19 -13 28 0 8 -5 18 -11 22 -6 3 -22
31 -35 61 l-24 54 105 102 c57 56 139 134 182 174 43 40 112 104 153 142 41
39 79 71 83 71 4 0 18 10 31 23 13 12 52 47 86 77 68 59 168 157 265 261 70
74 250 242 265 247 6 2 10 10 10 17 0 8 8 16 19 20 27 8 194 173 187 184 -11
17 116 136 144 136 21 0 25 5 25 28 0 22 14 41 60 83 32 30 62 54 66 54 4 0
27 16 51 35 23 19 48 39 53 43 6 4 17 11 25 15 8 4 33 18 55 32 22 14 56 33
75 43 19 9 41 23 48 30 7 6 19 12 26 12 8 0 19 7 26 15 7 8 20 15 30 15 10 0
23 7 30 15 7 8 25 15 40 15 24 0 31 -7 50 -52z m-3274 -875 c-5 -174 -6 -181
-35 -326 -18 -85 -18 -87 0 -82 12 4 41 -7 78 -29 32 -20 62 -36 66 -36 4 0
30 -16 57 -37 40 -29 52 -33 58 -22 6 8 4 19 -5 29 -25 28 -64 142 -70 203 -3
34 -7 101 -8 149 l-2 88 44 15 c25 8 45 14 46 12 1 -1 7 -55 13 -120 6 -66 15
-124 20 -130 5 -7 13 -30 17 -51 3 -22 18 -61 31 -88 13 -26 24 -54 24 -63 0
-8 5 -15 10 -15 6 0 10 -5 10 -11 0 -6 13 -29 29 -53 19 -27 26 -47 21 -56 -4
-8 -16 -39 -25 -67 -10 -32 -23 -53 -32 -53 -24 0 -151 70 -230 126 -41 30
-81 54 -89 54 -14 0 -20 -36 -6 -42 4 -1 31 -52 61 -113 30 -60 69 -134 86
-164 30 -50 31 -56 16 -73 -8 -10 -27 -18 -42 -18 -20 0 -30 8 -45 40 -10 22
-22 40 -26 40 -3 0 -11 12 -17 28 -6 15 -23 47 -37 72 -28 50 -65 135 -95 220
-10 30 -21 61 -24 69 -4 10 -8 11 -20 1 -8 -7 -12 -16 -9 -21 8 -13 -40 -11
-73 3 -41 17 -63 38 -63 60 0 23 12 23 52 -2 18 -11 44 -20 57 -20 22 0 17 8
-42 69 -71 73 -77 90 -61 169 l6 31 39 -59 c36 -55 63 -80 89 -80 7 0 9 7 6
16 -5 14 -4 15 9 4 9 -7 17 -11 19 -9 7 6 10 135 4 145 -3 5 -4 25 -2 44 1 19
5 75 9 124 7 99 23 148 57 176 13 11 24 19 26 20 2 0 1 -75 -2 -167z m2220
-823 c19 -20 34 -41 34 -48 0 -7 3 -12 8 -12 4 -1 20 -11 36 -25 l30 -24 -132
2 c-73 1 -132 2 -132 4 0 1 14 22 30 46 17 25 30 52 30 60 0 9 4 18 9 21 4 3
11 20 15 38 l6 33 16 -30 c8 -17 31 -46 50 -65z m-571 -205 l24 -20 -64 -55
c-35 -30 -64 -61 -64 -67 -1 -7 -5 -13 -9 -13 -21 0 -52 -145 -39 -185 5 -16
8 -45 7 -64 0 -18 8 -49 20 -68 11 -19 20 -40 20 -46 0 -13 40 -65 82 -108 39
-39 137 -95 183 -103 91 -17 261 -3 365 30 25 8 60 14 78 14 22 0 39 8 54 25
11 13 37 30 57 36 20 7 57 22 84 34 l47 23 0 -39 c0 -21 4 -39 9 -39 5 0 11
-15 15 -32 6 -33 34 -97 82 -191 13 -26 24 -56 24 -67 0 -11 4 -20 8 -20 5 0
24 -30 43 -67 19 -38 36 -70 39 -73 3 -3 20 -27 38 -55 l32 -50 -27 -22 c-16
-13 -42 -30 -60 -38 -18 -9 -38 -24 -46 -35 -7 -10 -24 -24 -38 -30 -13 -6
-37 -19 -54 -30 -16 -11 -54 -32 -82 -46 -62 -30 -70 -39 -46 -53 15 -9 13
-10 -14 -11 -17 0 -48 -8 -70 -19 -21 -10 -64 -30 -95 -44 -32 -15 -58 -31
-58 -37 0 -5 -19 -22 -42 -37 -24 -15 -63 -47 -87 -70 -33 -33 -48 -42 -64
-37 -12 4 -83 7 -159 7 -76 0 -141 4 -144 9 -3 5 0 16 7 25 13 14 5 15 -86 7
-55 -5 -123 -9 -150 -8 -65 1 -204 24 -211 35 -3 5 -21 9 -40 9 -19 0 -34 4
-34 9 0 5 -10 13 -22 16 -23 7 -159 84 -168 96 -3 3 -26 21 -51 40 -25 19 -44
40 -41 47 2 7 -3 12 -11 12 -8 0 -22 11 -31 25 -9 14 -30 38 -45 53 -28 26
-31 31 -31 52 0 6 -6 10 -12 10 -7 0 -18 10 -24 23 -5 12 -25 50 -44 84 -18
35 -31 66 -27 69 4 4 62 8 129 9 76 2 146 9 183 19 60 17 166 56 175 66 3 3
30 22 61 43 61 41 142 121 132 131 -4 3 -1 6 5 6 7 0 24 26 38 58 15 31 31 60
36 63 6 4 7 16 4 27 -4 11 -2 23 3 27 7 4 9 44 6 107 -3 76 -8 105 -21 119 -9
11 -14 19 -10 19 4 0 -2 12 -13 26 -27 35 -26 43 7 79 15 16 38 47 53 70 31
49 90 175 82 175 -3 0 -1 6 5 13 5 6 13 34 17 61 l7 49 24 -29 c14 -16 35 -38
49 -49z m700 45 c121 -13 181 -27 230 -51 51 -25 94 -81 101 -131 3 -18 7 -39
10 -46 2 -8 1 -19 -3 -25 -4 -6 -8 -20 -10 -32 -6 -42 -9 -52 -36 -97 -15 -26
-27 -49 -27 -52 0 -4 -18 -23 -41 -44 -23 -20 -51 -46 -63 -57 -31 -29 -153
-104 -159 -99 -3 3 -1 22 4 42 20 86 -21 302 -73 382 -9 14 -22 42 -29 64 -8
21 -20 41 -26 43 -7 3 -13 11 -13 17 0 7 -18 30 -40 52 -56 56 -46 58 175 34z
m-405 -38 c0 -9 -4 -32 -10 -51 -6 -22 -6 -40 1 -53 7 -13 7 -23 0 -32 -6 -7
-8 -16 -5 -19 4 -3 7 -35 7 -69 0 -48 6 -75 25 -113 14 -27 25 -55 24 -62 -2
-7 6 -18 18 -25 11 -7 20 -18 20 -25 0 -7 26 -38 57 -69 55 -53 123 -94 158
-94 9 0 15 -5 13 -12 -17 -49 -297 -96 -399 -67 -42 12 -140 67 -163 92 -49
52 -116 213 -100 239 3 5 1 14 -4 21 -15 17 12 138 32 149 9 5 16 14 16 19 0
22 97 102 159 132 36 17 68 32 71 33 3 0 12 3 20 7 53 20 60 20 60 -1z m-935
-29 c-4 -21 -22 -67 -41 -102 -33 -61 -37 -80 -15 -66 20 11 68 89 86 139 l19
49 9 -29 c11 -31 80 -132 121 -176 l25 -26 -75 5 c-77 6 -259 -10 -329 -29
-35 -9 -101 -31 -160 -53 -12 -4 -2 10 23 34 24 22 47 41 52 41 6 0 10 4 10 9
0 4 19 21 43 36 23 16 54 40 69 54 14 14 50 46 78 71 29 25 59 53 68 63 23 24
25 22 17 -20z m180 -264 c5 -5 16 -9 25 -9 19 0 70 -22 70 -31 0 -3 13 -20 30
-37 45 -48 62 -97 63 -187 0 -58 -5 -91 -18 -120 -10 -22 -19 -45 -20 -52 0
-6 -8 -20 -18 -30 -9 -11 -17 -23 -17 -27 0 -14 -55 -76 -67 -76 -7 0 -13 -7
-13 -15 0 -9 -8 -18 -17 -22 -10 -3 -34 -19 -53 -33 -67 -52 -197 -102 -244
-93 -14 3 -47 0 -73 -6 -93 -21 -344 -14 -359 10 -3 5 -13 9 -23 9 -9 0 -45
20 -78 45 -60 45 -95 86 -99 115 -6 62 -6 79 1 105 17 61 70 149 125 206 41
42 210 150 222 142 5 -2 8 0 8 5 0 8 50 32 66 32 2 0 1 -17 -2 -37 -15 -110
-2 -258 25 -283 3 -3 15 -23 26 -45 21 -42 117 -145 135 -145 7 0 18 -7 27
-15 8 -9 35 -21 59 -27 24 -7 43 -17 41 -23 -5 -14 24 -34 49 -35 25 0 48 24
67 70 17 42 20 180 6 265 -19 112 -21 120 -30 130 -5 5 -9 15 -9 22 0 19 -62
145 -82 167 -10 11 -18 23 -18 27 0 9 122 17 160 10 14 -2 29 -8 35 -12z
m-1002 -451 c-6 -7 -10 -39 -9 -70 2 -72 37 -126 116 -180 85 -58 128 -75 223
-88 74 -10 87 -15 88 -31 1 -18 4 -30 9 -46 1 -5 3 -12 4 -18 0 -5 13 -29 29
-52 15 -24 27 -46 27 -49 0 -4 11 -22 25 -40 14 -18 25 -36 25 -39 0 -3 15
-21 33 -38 17 -18 39 -41 48 -52 24 -31 128 -114 174 -139 17 -9 53 -30 80
-46 28 -16 60 -29 73 -29 13 -1 35 -7 50 -15 15 -7 48 -17 74 -20 l48 -7 -15
-27 c-8 -15 -35 -49 -59 -77 -40 -44 -46 -48 -68 -38 -32 15 -169 141 -160
147 4 2 9 18 10 35 3 39 -23 43 -40 6 -6 -14 -14 -25 -18 -25 -4 0 -13 -15
-21 -32 -7 -18 -24 -51 -38 -73 -29 -46 -66 -110 -83 -142 -20 -41 -40 -38
-86 14 -61 69 -137 235 -158 349 -3 19 -10 34 -15 34 -7 0 -29 -62 -29 -84 0
-5 -23 -57 -51 -115 -29 -58 -63 -132 -78 -163 -36 -79 -50 -77 -99 14 -37 68
-116 259 -128 308 -10 45 -9 41 -22 73 -7 16 -12 36 -12 46 0 10 -3 21 -7 24
-3 4 -7 17 -8 30 -4 38 -16 99 -26 125 -7 19 -22 273 -20 337 0 13 9 127 10
138 1 4 8 7 16 7 8 0 29 13 47 30 33 29 59 41 41 18z m4217 -932 c22 -14 40
-31 40 -36 0 -6 7 -10 15 -10 29 0 185 -243 177 -274 -2 -5 4 -24 13 -43 15
-32 43 -119 49 -153 1 -8 7 -24 13 -35 6 -11 13 -42 16 -70 3 -27 10 -72 16
-100 38 -175 52 -323 49 -505 -3 -220 -22 -354 -72 -500 -8 -25 -17 -58 -20
-75 -3 -16 -12 -46 -20 -65 -25 -60 -29 -75 -27 -87 1 -7 -3 -13 -9 -13 -5 0
-10 -4 -10 -10 0 -8 -26 -68 -73 -170 -7 -14 -15 -27 -18 -30 -3 -3 -17 -24
-31 -48 -28 -48 -74 -107 -102 -131 -10 -9 -27 -24 -38 -33 -10 -10 -22 -18
-28 -18 -5 0 -10 -4 -10 -8 0 -5 -12 -15 -26 -22 -23 -13 -24 -15 -9 -27 16
-11 14 -14 -16 -32 -19 -12 -37 -21 -41 -21 -9 0 -12 30 -9 73 1 15 -3 27 -8
27 -6 0 -11 7 -11 15 0 8 3 15 8 15 8 0 7 115 -2 164 -4 19 -2 45 4 60 6 16 6
35 0 51 -8 20 -3 35 28 87 42 69 92 181 92 204 0 8 5 14 10 14 6 0 9 3 8 8 -1
7 0 12 21 72 23 64 42 164 46 235 12 236 1 453 -25 504 -4 9 -13 43 -20 76
-24 121 -65 276 -86 322 -7 17 -14 33 -14 36 0 2 -9 25 -20 51 -12 25 -21 49
-21 53 0 5 -10 18 -21 30 -12 13 -19 25 -16 29 3 3 -1 33 -8 67 -35 148 12
321 96 350 28 10 70 0 110 -27z m-2429 -104 c-77 -97 -121 -232 -119 -367 1
-44 -2 -125 -6 -180 -17 -244 -5 -663 24 -865 5 -36 12 -101 16 -145 3 -44 7
-82 9 -85 3 -6 16 -131 21 -205 1 -27 3 -50 4 -50 1 0 4 -13 5 -30 2 -16 8
-70 14 -120 6 -49 14 -112 17 -140 3 -27 7 -66 10 -85 2 -19 7 -55 9 -80 3
-25 8 -53 11 -62 4 -13 -5 -17 -48 -22 -29 -3 -72 -5 -96 -4 l-43 3 -3 160
c-2 88 -9 187 -14 220 -6 33 -13 83 -16 110 -3 28 -10 77 -16 110 -6 33 -15
96 -20 140 -6 44 -15 94 -21 111 -5 18 -9 36 -8 40 1 5 0 12 -1 17 -1 4 -3 10
-4 15 -2 7 -20 79 -38 147 -6 22 -14 49 -19 60 -20 47 -49 146 -49 167 0 13
-12 77 -26 143 -14 66 -27 127 -29 136 -5 23 -42 185 -55 244 -7 28 -14 74
-17 103 -3 28 -8 52 -11 52 -4 0 -8 12 -9 28 -2 35 -12 102 -19 123 -2 9 -7
33 -9 54 -3 20 -7 41 -10 45 -9 15 7 40 25 40 24 0 32 54 15 96 -7 17 -10 36
-6 42 15 24 182 54 346 61 72 3 149 7 173 8 l42 2 -29 -37z m-854 -88 c16 7
67 -40 59 -53 -3 -5 1 -11 9 -15 8 -3 12 -12 9 -21 -3 -8 -11 -12 -16 -9 -6 4
-5 10 3 16 10 6 7 7 -9 3 -20 -6 -22 -3 -18 17 2 13 -3 29 -10 36 -17 16 -18
8 -3 -21 12 -22 12 -22 -9 -3 -12 10 -19 22 -17 27 3 4 -4 11 -15 14 -12 4
-26 17 -32 31 -6 13 -15 21 -21 17 -6 -4 -7 -1 -2 7 5 9 15 4 33 -19 14 -19
30 -30 39 -27z m863 -32 c-8 -31 -39 -92 -40 -80 0 4 6 22 14 40 8 18 17 41
20 51 9 29 15 19 6 -11z m-771 -74 c-3 -25 1 -39 10 -33 13 7 23 -28 15 -50
-6 -14 -11 -8 -24 26 -15 39 -16 69 -3 69 2 0 3 -6 2 -12z m714 -63 c-3 -9 -8
-14 -10 -11 -3 3 -2 9 2 15 9 16 15 13 8 -4z m-668 -24 c-3 -5 -1 -12 4 -16 6
-3 8 -12 4 -20 -3 -8 0 -15 7 -15 7 0 9 -8 5 -21 -5 -16 -4 -19 5 -14 9 5 11
4 6 -3 -4 -7 -2 -12 4 -12 6 0 10 -6 9 -12 -3 -27 1 -49 9 -44 4 2 13 -4 20
-15 10 -15 10 -19 0 -19 -9 0 -8 -3 2 -10 8 -5 11 -10 6 -10 -5 0 -3 -6 3 -14
8 -9 8 -16 2 -20 -6 -4 -8 -14 -5 -24 5 -14 4 -14 -4 -2 -6 8 -9 17 -6 21 2 4
-3 12 -10 19 -8 6 -13 20 -11 31 2 10 0 19 -6 19 -5 0 -9 8 -9 18 0 10 -5 23
-12 30 -7 7 -8 12 -4 12 5 0 1 11 -8 25 -9 14 -14 29 -12 34 3 5 0 14 -8 20
-15 12 -10 51 6 51 5 0 7 -4 3 -9z m2302 -169 c12 -13 21 -28 18 -32 -6 -9 29
-42 38 -35 4 3 3 0 -2 -6 -12 -15 -3 -39 15 -39 8 0 14 -4 14 -9 0 -5 8 -12
18 -15 10 -4 6 4 -10 18 -16 14 -28 27 -28 30 0 11 36 -9 52 -29 15 -19 15
-21 -4 -31 -19 -10 -19 -12 -3 -18 11 -4 15 -13 12 -26 -3 -11 -2 -18 3 -15 4
3 10 14 13 25 3 11 1 18 -4 14 -5 -3 -9 0 -9 5 0 28 26 9 98 -73 16 -18 16
-18 -4 -8 -16 9 -21 8 -21 -4 0 -8 10 -14 23 -14 16 0 24 -8 29 -27 4 -16 6
-30 5 -32 -1 -2 4 -8 12 -13 9 -7 3 -8 -19 -4 -19 3 -33 1 -35 -6 -3 -9 -13
-8 -36 1 -33 14 -58 7 -33 -8 13 -9 -52 -44 -105 -57 -16 -4 -35 -11 -42 -17
-10 -8 -16 -7 -23 4 -7 11 -9 11 -9 0 0 -15 -41 -50 -79 -68 -15 -6 -20 -12
-13 -12 6 -1 12 -5 12 -9 0 -15 -58 -11 -64 4 -3 8 -1 14 3 14 5 0 11 -6 14
-12 2 -7 7 -11 10 -8 12 11 -11 33 -28 27 -11 -5 -14 -13 -10 -27 6 -18 5 -19
-22 -5 -15 8 -37 15 -48 16 l-20 0 20 10 c18 8 18 9 1 6 -12 -1 -20 -11 -22
-30 -2 -24 -1 -25 12 -12 18 17 38 20 28 4 -4 -8 1 -9 16 -4 14 4 20 3 16 -3
-8 -13 -46 -22 -46 -11 0 5 -9 0 -21 -12 -12 -12 -29 -19 -40 -16 -11 3 -19 0
-19 -6 0 -8 -3 -8 -8 -2 -8 12 -42 16 -42 5 0 -4 -16 -11 -36 -15 -35 -6 -102
-55 -76 -55 6 0 12 4 12 9 0 10 39 27 54 22 5 -1 12 2 15 8 3 5 20 12 36 16
28 6 28 5 -8 -15 -22 -12 -41 -19 -44 -17 -2 3 -21 -6 -40 -19 -40 -27 -53
-30 -53 -12 0 6 -3 8 -6 5 -4 -4 -1 -15 7 -24 7 -10 10 -15 5 -11 -5 4 -24 -4
-42 -19 -19 -14 -34 -21 -34 -17 0 5 12 17 28 26 15 10 22 18 15 18 -6 0 -15
-4 -18 -10 -3 -5 -11 -10 -17 -10 -7 0 -7 4 1 13 6 8 7 17 3 22 -4 4 4 4 18 0
19 -6 22 -5 14 5 -21 21 -48 8 -50 -25 -3 -60 -4 -65 -18 -65 -7 0 -21 -11
-30 -25 -10 -14 -28 -30 -42 -35 -13 -5 -24 -14 -24 -20 0 -5 -7 -10 -15 -10
-8 0 -15 5 -15 10 0 6 6 10 13 10 8 0 7 4 -3 10 -22 15 -29 12 -27 -10 1 -11
5 -20 9 -20 4 0 8 -9 8 -20 0 -20 -32 -44 -44 -33 -3 3 -6 1 -6 -7 0 -10 -3
-10 -15 0 -8 7 -15 9 -15 6 0 -4 7 -14 15 -22 8 -9 15 -11 15 -5 0 6 5 11 10
11 6 0 -2 -16 -17 -35 -25 -31 -29 -33 -43 -18 -8 9 -16 28 -17 41 0 16 2 20
7 12 5 -8 9 -9 14 -1 4 6 2 11 -4 11 -6 0 -9 4 -6 8 3 5 -1 9 -9 9 -8 0 -13
-3 -12 -6 1 -3 -1 -7 -6 -8 -4 -2 -7 -2 -6 0 0 1 -4 15 -10 30 -8 21 -8 26 0
21 7 -4 10 -1 7 7 -3 8 -11 13 -17 11 -9 -2 -9 3 -1 18 6 11 15 20 20 20 6 0
10 7 10 16 0 9 6 14 13 11 8 -3 13 6 14 26 1 27 -1 28 -10 11 -6 -10 -15 -22
-21 -26 -6 -4 -11 -13 -11 -19 0 -7 -7 -14 -15 -17 -8 -3 -12 -2 -8 2 3 4 2
21 -2 37 -5 16 -5 29 0 29 5 0 11 -8 13 -17 4 -16 5 -16 6 -1 0 9 -3 20 -9 23
-16 10 -12 25 5 19 8 -4 15 -16 15 -28 0 -16 2 -18 9 -7 12 19 4 38 -20 44
-13 3 -19 14 -19 31 0 22 2 25 14 14 10 -9 11 -15 2 -20 -7 -5 -5 -8 7 -8 9 0
17 7 17 15 0 8 -5 15 -11 15 -5 0 -7 5 -4 10 3 6 1 10 -4 10 -6 0 -11 10 -11
22 l0 21 20 -23 c23 -27 27 -14 5 17 -13 19 -13 23 -1 36 11 11 12 17 3 26 -6
6 -7 11 -1 11 6 0 15 -5 20 -10 7 -7 10 -4 9 9 -1 12 -4 24 -8 27 -4 4 2 15
14 25 12 10 15 19 9 21 -7 2 -1 12 12 23 19 17 20 17 8 2 -11 -15 -11 -20 -1
-27 11 -6 8 -11 -9 -20 -18 -10 -20 -14 -9 -21 8 -5 19 -9 24 -9 6 0 4 4 -4 9
-11 7 -11 10 0 17 7 4 14 3 17 -4 2 -7 8 -12 14 -12 7 0 6 5 -1 14 -7 8 -8 17
-3 20 5 3 12 17 14 31 3 13 1 22 -3 19 -5 -3 -9 -14 -9 -25 0 -10 -5 -19 -11
-19 -6 0 -8 9 -4 23 4 12 9 30 12 40 2 9 9 14 15 11 6 -4 6 1 -1 14 -12 23 0
38 21 26 6 -4 8 -3 5 3 -7 11 29 63 43 63 5 0 10 -6 13 -12 2 -7 3 -5 2 5 -2
9 1 17 7 17 5 0 7 4 4 9 -3 4 6 13 19 19 22 10 25 9 25 -9 0 -16 2 -18 14 -7
8 7 12 16 10 19 -1 3 6 13 17 22 11 10 17 22 14 27 -4 6 1 7 11 3 12 -5 15 -3
9 6 -6 10 -3 11 15 1 15 -8 20 -8 16 -1 -5 7 2 11 16 11 13 0 30 5 38 10 11 7
5 9 -20 5 l-35 -5 33 15 c17 8 32 21 32 28 0 8 -2 9 -8 1 -10 -15 -52 -28 -52
-16 0 6 12 13 28 18 46 13 62 19 137 56 37 18 61 25 63 18 3 -7 8 -6 16 4 16
21 88 34 180 34 72 -1 82 -3 103 -26z m-1660 -44 c-3 -8 -6 -5 -6 6 -1 11 2
17 5 13 3 -3 4 -12 1 -19z m-1156 -55 c-10 -22 -14 -24 -22 -12 -8 10 -9 8 -4
-8 5 -17 2 -23 -9 -23 -9 0 -13 6 -10 14 3 8 0 17 -5 21 -6 3 -9 11 -5 16 3 5
10 7 15 4 5 -4 9 0 9 9 0 17 21 27 34 15 6 -5 5 -19 -3 -36z m1156 -10 c-3
-10 -5 -2 -5 17 0 19 2 27 5 18 2 -10 2 -26 0 -35z m-519 -25 c9 -22 9 -26 -3
-22 -9 4 -13 -1 -11 -13 2 -10 11 -19 22 -21 16 -3 17 -1 4 8 -13 10 -13 11 0
7 8 -2 15 -8 16 -13 0 -5 5 -20 11 -34 20 -49 24 -68 13 -75 -5 -3 -10 -16 -9
-28 0 -21 1 -21 8 -2 7 17 8 17 15 -8 3 -16 4 -32 1 -37 -4 -6 -1 -10 5 -10 7
0 10 -7 6 -15 -3 -8 -1 -15 5 -15 6 0 9 -6 6 -14 -3 -8 -1 -17 6 -20 9 -3 9
-5 -1 -5 -15 -1 -34 43 -35 81 0 15 -5 26 -11 25 -6 -1 -12 8 -14 21 -2 12 -8
22 -13 22 -6 0 -7 9 -4 20 4 13 2 20 -6 20 -7 0 -5 7 7 16 13 11 15 17 6 20
-6 3 -10 10 -6 15 3 5 0 9 -7 9 -6 0 -9 -8 -6 -20 3 -11 2 -20 -2 -20 -12 0
-32 76 -25 94 5 12 2 15 -9 10 -14 -5 -14 -2 -4 20 13 27 17 25 35 -16z m-608
23 c0 -5 -7 -17 -16 -25 -21 -22 -5 -20 19 2 19 16 20 16 14 0 -4 -11 -2 -17
6 -15 7 1 11 -3 10 -10 -2 -7 4 -10 12 -7 8 4 15 1 15 -5 0 -6 -4 -11 -10 -11
-5 0 -10 -4 -10 -10 0 -5 7 -7 15 -4 11 5 13 2 8 -12 -4 -12 -3 -15 5 -10 8 5
19 -5 30 -25 9 -18 25 -40 35 -51 22 -23 22 -26 -6 -23 -22 3 -23 0 -18 -33 5
-32 31 -59 31 -33 0 6 -4 11 -10 11 -5 0 -10 11 -10 25 0 14 5 25 10 25 6 0
10 -8 10 -17 0 -10 5 -25 10 -33 8 -11 9 -7 5 15 -6 29 -6 29 9 11 9 -11 16
-24 16 -29 0 -6 8 -16 18 -24 9 -8 12 -12 7 -9 -14 6 -18 -51 -5 -59 7 -4 9 2
4 19 -8 32 10 35 27 5 8 -15 8 -19 0 -15 -6 4 -11 2 -11 -3 0 -6 5 -11 10 -11
6 0 10 -5 10 -11 0 -6 9 -18 19 -27 11 -10 22 -28 25 -42 7 -25 7 -25 -9 2 -8
15 -24 29 -35 33 -11 3 -20 14 -20 24 0 9 -8 17 -19 18 -15 1 -18 -3 -14 -15
9 -22 34 -41 55 -42 9 0 20 -10 24 -22 4 -13 13 -27 20 -33 7 -5 20 -27 28
-49 14 -33 14 -37 1 -32 -8 3 -15 1 -15 -4 0 -6 7 -10 15 -10 8 0 21 -13 30
-30 9 -16 13 -30 9 -30 -4 0 -1 -7 6 -15 16 -19 22 -65 8 -65 -6 0 -8 7 -5 15
4 8 2 17 -4 20 -5 4 -7 11 -4 16 3 5 -2 6 -12 3 -15 -5 -16 -4 -3 6 12 10 11
11 -9 6 -18 -4 -31 2 -49 22 l-25 27 17 -28 c10 -16 15 -32 11 -35 -3 -4 -9
-1 -14 6 -7 12 -134 51 -180 56 -30 2 -37 19 -16 36 8 7 15 17 15 23 0 5 -8 0
-18 -11 -13 -15 -26 -20 -43 -16 -13 2 -43 7 -66 9 -71 8 -121 22 -138 39 -9
9 -21 16 -26 16 -19 0 -79 55 -79 73 0 10 -6 20 -14 23 -8 3 -12 12 -9 20 4
10 0 12 -11 8 -21 -8 -20 5 2 23 9 8 11 12 5 8 -7 -3 -13 0 -13 7 0 9 -3 9
-10 -2 -5 -8 -10 -10 -10 -5 0 21 49 67 65 61 9 -3 13 -2 10 4 -3 6 -13 10
-21 10 -12 0 -12 3 1 24 18 27 52 40 59 22 3 -7 5 -7 5 2 1 7 -6 15 -14 18 -8
4 -12 10 -9 15 3 5 10 6 16 3 6 -4 8 1 4 14 -7 22 19 56 36 46 6 -4 8 1 3 15
-5 17 -2 21 14 21 12 0 21 -4 21 -10 0 -5 -7 -7 -15 -4 -21 8 -19 -3 3 -15 16
-8 18 -6 18 18 0 23 -3 27 -20 24 -21 -4 -21 -4 -1 8 11 7 33 25 49 41 16 15
32 25 35 22 3 -3 -1 -9 -8 -13 -10 -7 -8 -11 10 -16 18 -6 27 -2 43 18 22 27
36 34 36 18z m1133 -50 c2 -10 1 -24 -3 -30 -4 -7 -7 1 -8 18 -1 35 3 40 11
12z m1042 -21 c-3 -5 -12 -10 -18 -10 -7 0 -6 4 3 10 19 12 23 12 15 0z m-805
-14 c0 -10 7 -12 22 -8 17 4 20 2 15 -11 -6 -15 -1 -16 35 -11 l41 7 -7 -34
c-4 -19 -7 -55 -6 -80 1 -40 -2 -47 -25 -57 -33 -15 -42 -15 -27 1 7 6 18 12
25 12 7 0 12 6 11 13 -1 6 -2 21 -2 32 -1 11 -6 20 -12 20 -5 0 -7 -7 -4 -15
4 -8 2 -15 -4 -15 -20 0 -18 25 5 50 28 30 32 65 6 52 -20 -10 -44 -5 -55 12
-5 7 -8 7 -8 -2 0 -8 10 -23 23 -33 21 -19 21 -20 1 -14 -14 4 -21 1 -21 -10
0 -8 5 -15 11 -15 6 0 5 -5 -2 -12 -14 -14 -16 -32 -3 -23 6 3 15 -3 20 -13
18 -33 -15 -53 -80 -48 -30 2 -62 5 -71 5 -14 1 -18 10 -18 36 0 19 5 35 11
35 5 0 7 -5 4 -10 -9 -15 5 -51 17 -44 6 4 14 1 18 -6 5 -7 10 -8 14 -2 3 5
-3 21 -14 34 -21 27 -12 48 22 48 10 0 18 7 18 18 0 14 4 13 19 -7 l18 -24 5
25 c7 37 -11 53 -64 56 -46 3 -48 2 -40 -20 9 -26 5 -58 -8 -58 -4 0 -7 21 -6
48 1 44 2 47 26 43 57 -8 65 -6 68 17 4 24 22 31 22 8z m-243 -48 c-3 -7 -5
-2 -5 12 0 14 2 19 5 13 2 -7 2 -19 0 -25z m493 22 c13 -8 12 -10 -2 -10 -10
0 -18 -4 -18 -10 0 -15 38 -12 65 6 27 18 35 5 10 -16 -24 -20 -18 -40 11 -40
l25 0 -20 -29 c-28 -38 -26 -51 5 -51 14 0 22 -4 19 -10 -8 -13 -79 -7 -98 8
-12 10 -16 10 -21 -3 -3 -9 -10 -14 -15 -11 -10 7 -2 56 12 74 7 8 5 12 -7 12
-11 0 -16 9 -16 29 0 56 16 73 50 51z m-92 -22 l11 -23 0 23 c2 40 21 23 21
-18 0 -45 -20 -54 -38 -17 l-11 22 0 -22 c-2 -40 -21 -36 -21 5 0 56 18 70 38
30z m260 5 c14 -24 -6 -63 -33 -63 -41 0 -58 36 -29 64 20 21 51 20 62 -1z
m-660 -48 c-3 -3 -9 2 -12 12 -6 14 -5 15 5 6 7 -7 10 -15 7 -18z m-1 -37 c-3
-8 -6 -5 -6 6 -1 11 2 17 5 13 3 -3 4 -12 1 -19z m427 -4 c15 -40 -5 -83 -25
-53 -8 12 -11 12 -19 -1 -10 -16 -14 -8 -10 25 4 41 42 61 54 29z m-432 -46
c-8 -8 -9 -4 -5 13 4 13 8 18 11 10 2 -7 -1 -18 -6 -23z m868 8 c0 -3 -4 -8
-10 -11 -5 -3 -10 -1 -10 4 0 6 5 11 10 11 6 0 10 -2 10 -4z m-854 -96 c0 -44
-4 -80 -9 -80 -5 0 -7 6 -4 13 2 6 0 24 -4 40 -5 16 -4 25 1 22 6 -4 7 7 4 24
-6 26 -1 61 8 61 2 0 3 -36 4 -80z m185 -41 c30 -6 71 -10 91 -10 20 1 39 -3
43 -9 3 -5 16 -10 28 -9 20 1 20 2 -3 9 -17 6 0 8 55 9 58 1 87 -3 103 -15 12
-8 20 -18 18 -22 -2 -4 7 -8 20 -8 l25 -2 -22 19 c-11 10 -26 20 -32 22 -28
10 3 14 54 7 30 -4 69 -6 86 -4 30 3 31 3 23 -29 -4 -18 -11 -40 -15 -49 -10
-24 -11 -197 -1 -191 4 3 5 -5 1 -18 -10 -31 -13 -46 -8 -36 3 4 9 5 14 2 5
-4 2 -16 -6 -29 -15 -22 -11 -36 9 -36 6 0 5 4 -3 9 -9 6 -10 11 -2 15 6 4 19
-7 30 -26 11 -18 25 -39 31 -46 6 -7 8 -17 5 -22 -4 -6 1 -7 12 -3 15 5 16 3
6 -8 -7 -7 -13 -17 -13 -22 0 -4 6 -5 13 -2 6 4 5 1 -3 -7 -14 -12 -16 -31
-12 -83 2 -18 4 -18 15 5 15 27 12 44 -3 20 -8 -13 -10 -13 -10 1 0 22 8 28
29 22 13 -3 17 -11 13 -29 -2 -13 -9 -21 -14 -18 -6 4 -8 -1 -4 -12 3 -11 1
-26 -5 -34 -10 -13 -10 -13 -6 1 3 9 0 16 -7 16 -7 0 -13 -13 -13 -29 0 -15 4
-28 9 -28 4 0 8 5 8 12 0 6 3 8 7 4 5 -4 -1 -14 -11 -22 -11 -8 -15 -14 -10
-14 14 0 16 -48 3 -56 -8 -4 -7 -9 2 -15 11 -7 11 -9 -1 -9 -10 0 -11 -3 -4
-8 6 -4 15 -23 19 -42 5 -24 4 -32 -3 -25 -6 6 -12 21 -14 35 -3 14 -4 -17 -4
-67 1 -51 3 -93 6 -93 11 0 32 18 30 26 -1 5 3 10 9 12 6 2 11 -2 11 -8 0 -7
6 -10 14 -7 8 3 24 -5 36 -18 l22 -24 -34 3 c-19 2 -40 6 -47 10 -6 4 -11 2
-11 -3 0 -11 19 -16 53 -13 11 1 15 -2 11 -9 -4 -8 0 -8 15 0 15 8 25 9 34 1
6 -6 21 -17 31 -24 11 -7 16 -18 12 -24 -10 -17 -26 -15 -20 2 3 8 1 16 -3 19
-5 3 -9 -10 -10 -30 0 -19 2 -31 6 -26 3 6 16 15 27 21 17 9 26 8 43 -7 20
-17 30 -38 13 -27 -4 2 -8 -4 -8 -14 0 -17 2 -18 17 -5 14 13 18 13 34 -5 10
-11 15 -26 11 -36 -5 -13 -3 -14 6 -6 18 14 52 -10 37 -25 -8 -8 -7 -13 0 -17
6 -4 11 -2 11 4 0 8 6 8 21 0 12 -7 18 -18 15 -26 -3 -9 -1 -14 7 -12 6 1 25
-10 41 -24 26 -25 27 -29 12 -43 -9 -9 -16 -13 -16 -8 0 5 5 14 12 21 7 7 8
12 2 12 -5 0 -15 -9 -22 -21 -16 -25 -28 -19 -14 8 7 12 6 22 -3 30 -10 9 -12
4 -11 -25 1 -33 4 -37 26 -36 14 1 30 3 35 4 22 5 36 -1 29 -12 -12 -19 -14
-57 -3 -63 5 -4 6 2 2 12 -6 16 -5 16 10 4 22 -17 22 -3 0 21 -9 10 -11 18 -5
18 6 0 16 -9 23 -21 20 -38 -12 -50 -126 -50 -39 0 -72 -5 -76 -11 -5 -7 -29
-8 -72 -4 -53 6 -66 11 -70 27 -3 11 -9 19 -14 18 -4 -1 -36 -1 -71 0 -53 1
-65 5 -84 26 -12 14 -26 25 -31 25 -11 0 -29 18 -52 53 -26 41 -71 35 -98 -13
-41 -75 -83 -270 -58 -270 6 0 10 -12 10 -27 0 -49 8 -87 29 -133 21 -44 17
-65 -10 -65 -6 0 -13 -6 -15 -12 -5 -15 13 -17 22 -3 10 16 45 -12 41 -35 -2
-11 -1 -14 1 -7 3 7 8 10 13 7 5 -3 7 -12 4 -19 -3 -7 13 -29 35 -49 21 -19
36 -39 33 -43 -4 -4 1 -4 11 -1 19 7 57 -11 57 -28 0 -24 330 -25 389 -2 23
10 53 13 78 10 35 -5 42 -2 48 16 3 11 13 21 22 21 13 0 13 -2 2 -17 -12 -14
-12 -16 1 -11 8 2 16 17 17 32 1 16 3 30 5 32 4 4 57 12 87 13 20 1 21 3 11
16 -10 12 -7 17 16 27 41 17 62 17 75 2 13 -16 49 -19 49 -4 0 6 -11 10 -24
10 -13 0 -29 6 -35 14 -10 12 -6 13 28 9 34 -5 43 -2 65 22 16 17 26 40 26 57
0 16 4 27 9 24 5 -3 8 5 7 18 0 13 -4 22 -8 19 -5 -2 -8 3 -8 13 0 13 6 15 30
11 17 -4 30 -2 30 3 0 12 26 13 33 3 2 -5 2 -2 1 5 -5 17 55 72 78 72 10 0 44
26 75 57 30 32 65 62 76 68 11 5 19 13 18 18 0 4 7 15 17 25 26 27 42 4 38
-54 -1 -27 2 -57 7 -68 12 -24 -9 -48 -23 -26 -11 17 -13 9 -4 -14 3 -9 10
-13 15 -10 5 3 9 -2 9 -11 0 -10 -5 -13 -12 -9 -7 4 -8 3 -4 -5 12 -18 -2 -63
-17 -55 -9 5 -9 4 0 -6 9 -10 10 -17 2 -27 -9 -10 -8 -13 2 -13 8 0 5 -5 -6
-14 -20 -14 -31 -96 -14 -96 4 0 7 -20 6 -45 -1 -25 -5 -45 -8 -45 -3 0 -6
-17 -6 -37 0 -20 -4 -38 -10 -40 -6 -2 -9 -14 -6 -26 4 -20 3 -20 -11 3 -14
24 -14 24 -10 -20 3 -35 2 -39 -5 -20 -6 17 -9 19 -10 8 -1 -21 -14 -24 -166
-38 -83 -8 -121 -8 -123 0 -2 5 -25 10 -51 10 -26 0 -52 5 -59 12 -9 9 -15 9
-24 0 -9 -9 -8 -12 7 -13 16 -1 15 -3 -5 -9 -36 -12 -72 -12 -65 0 3 6 1 10
-4 10 -6 0 -11 -6 -11 -13 0 -14 -40 -21 -112 -21 -26 1 -45 -3 -42 -8 7 -10
-7 -10 -25 1 -11 7 -9 10 8 16 13 4 21 8 19 10 -2 2 -23 -2 -46 -10 -26 -9
-58 -12 -87 -8 -29 4 -45 2 -45 -5 0 -6 -19 -13 -42 -15 -40 -3 -39 -4 12 -6
77 -2 42 -21 -48 -25 -37 -2 -77 -8 -88 -14 -23 -12 -152 -26 -246 -27 -36 0
-64 -3 -62 -7 3 -4 -12 -10 -32 -14 -26 -5 -39 -3 -45 7 -8 14 6 29 30 29 11
0 11 -3 1 -15 -15 -18 -7 -19 22 -4 17 9 18 13 7 20 -8 5 -24 9 -36 9 -13 0
-23 5 -23 10 0 6 -5 10 -11 10 -5 0 -7 -4 -4 -10 3 -5 -4 -10 -17 -11 -23 -1
-23 -1 2 -9 23 -7 23 -8 -10 -11 l-35 -2 33 -4 c33 -4 45 -23 15 -23 -10 0
-29 -3 -43 -6 -20 -4 -22 -3 -10 5 8 6 11 11 5 11 -14 0 -42 -19 -30 -21 6 -1
-6 -5 -25 -9 -22 -5 -40 -5 -48 2 -9 8 -11 7 -6 -6 3 -9 1 -16 -5 -16 -14 0
-14 27 -1 35 6 4 17 2 25 -5 9 -8 15 -8 20 0 4 6 1 9 -6 8 -13 -3 -31 50 -22
65 3 6 1 7 -4 4 -6 -4 -13 10 -17 36 -4 23 -7 42 -7 42 0 0 -4 17 -8 38 -5 20
-5 37 -1 37 5 0 2 13 -6 30 -14 27 -14 32 0 45 10 11 17 12 22 4 3 -6 2 -14
-3 -18 -6 -3 -5 -15 2 -28 7 -13 15 -20 18 -17 3 4 2 15 -4 25 -7 14 -6 19 2
19 9 0 9 3 0 14 -7 8 -8 16 -4 18 4 3 3 4 -3 2 -7 -1 -22 7 -33 18 -17 15 -21
28 -17 51 3 17 1 34 -4 37 -5 3 -10 49 -11 102 -2 53 -6 95 -11 92 -12 -8 -10
10 4 24 9 9 8 16 -5 30 -9 10 -17 29 -17 43 1 23 2 22 15 -6 16 -35 20 -28 5
9 -5 14 -6 26 -2 26 11 0 7 109 -4 120 -6 6 -10 2 -10 -9 0 -11 4 -17 8 -15 4
3 8 0 8 -5 0 -16 -18 -13 -28 5 -5 9 -5 34 1 60 9 38 8 50 -7 75 -10 17 -16
33 -13 35 3 3 1 19 -4 36 -5 19 -4 38 2 50 8 15 8 19 0 14 -6 -4 -11 0 -11 9
0 10 6 15 13 12 7 -3 13 5 14 21 1 16 -2 20 -7 12 -4 -7 -13 -9 -20 -5 -9 6
-9 10 1 16 10 7 11 11 3 17 -7 4 -15 30 -18 57 -4 28 -9 58 -12 69 -4 12 -2
16 5 12 15 -10 13 5 -4 28 -8 11 -15 27 -15 35 0 13 2 13 9 3 6 -10 10 -7 13
11 4 18 1 24 -9 20 -21 -8 -17 85 5 110 9 11 11 17 3 12 -10 -6 -12 -2 -6 14
3 11 2 21 -3 21 -16 0 -21 38 -7 44 8 3 16 0 18 -7 2 -7 3 24 3 69 -1 71 -3
80 -18 76 -15 -4 -16 -6 -2 -27 15 -22 10 -60 -7 -49 -5 3 -7 10 -4 15 4 5 1
9 -6 9 -9 0 -9 3 0 14 8 10 9 15 1 18 -7 2 -5 16 5 43 9 24 13 29 10 13 -4
-20 -2 -26 8 -22 14 5 18 44 5 44 -5 0 -5 8 0 18 14 27 13 135 -1 144 -9 6 -8
10 3 18 12 8 12 10 1 10 -10 0 -11 3 -2 14 9 11 8 15 -5 20 -9 4 -19 4 -22 1
-3 -3 0 -5 6 -5 6 0 10 -9 9 -20 -1 -11 -5 -20 -10 -20 -4 0 -1 -10 7 -22 21
-30 22 -60 1 -32 -20 26 -19 9 1 -22 9 -13 14 -28 10 -32 -4 -3 -11 0 -16 7
-5 10 -8 6 -7 -12 2 -19 5 -23 15 -15 17 15 16 -16 -1 -34 -8 -7 -17 -20 -21
-28 -3 -9 -4 -6 -2 7 2 13 1 37 -3 55 -4 18 -4 49 0 68 4 19 4 37 1 40 -10 7
-12 174 -3 180 5 3 11 16 15 30 l7 25 -15 -25 c-15 -25 -21 -16 -10 14 7 19 7
19 75 5z m-185 -58 c-4 -5 0 -12 6 -15 11 -5 11 -7 0 -12 -6 -3 -9 -11 -6 -16
4 -6 3 -8 -3 -5 -5 3 -9 16 -7 29 3 28 3 28 10 28 3 0 3 -4 0 -9z m1600 0 c-3
-4 22 -11 55 -14 33 -3 63 -8 66 -11 7 -7 -30 -156 -39 -156 -4 0 -10 -16 -14
-36 -4 -22 -11 -33 -19 -30 -9 3 -11 -3 -9 -17 2 -12 2 -16 -2 -9 -3 6 -11 12
-17 12 -15 0 -16 -50 -2 -50 6 -1 0 -9 -11 -18 -12 -10 -29 -33 -38 -51 -10
-19 -23 -31 -31 -28 -9 4 -11 -1 -7 -15 3 -14 1 -19 -6 -14 -8 5 -10 2 -6 -8
4 -11 0 -16 -10 -16 -9 0 -19 -7 -22 -15 -4 -8 -12 -15 -19 -15 -7 0 -15 -10
-19 -22 -5 -21 -45 -48 -70 -48 -6 0 -25 -14 -43 -30 -18 -17 -37 -30 -42 -30
-6 0 -11 -7 -11 -16 0 -9 -6 -14 -12 -11 -7 2 -22 0 -33 -6 -11 -5 -34 -10
-53 -9 -18 1 -30 -3 -27 -7 6 -11 -90 -35 -105 -26 -5 3 -10 -1 -10 -9 0 -8
-7 -22 -16 -30 -8 -9 -12 -16 -7 -16 14 0 35 17 33 26 -1 5 3 10 8 12 6 2 8
-6 5 -16 -6 -24 -75 -53 -94 -41 -10 6 -8 9 9 9 13 0 21 4 17 10 -3 6 -15 5
-31 -2 -15 -7 -21 -14 -15 -16 18 -6 13 -18 -14 -30 -44 -20 -58 -16 -51 16
l5 27 -13 -28 c-6 -15 -16 -24 -21 -20 -4 5 -5 2 -1 -4 4 -7 15 -13 24 -13 15
0 15 -2 2 -10 -10 -6 -16 -6 -18 0 -2 6 -10 10 -18 10 -9 0 -13 4 -9 10 8 13
-5 60 -16 60 -6 0 -5 -8 1 -19 13 -26 12 -41 -1 -18 -21 36 -33 143 -19 164 8
12 10 13 7 3 -3 -11 4 -15 30 -16 19 0 28 3 21 7 -9 6 -9 11 1 23 7 8 14 38
15 67 3 43 1 50 -9 36 -6 -9 -16 -13 -20 -9 -5 4 -6 0 -2 -9 6 -17 -30 -85
-40 -75 -3 3 0 13 7 22 8 8 15 25 15 36 1 12 9 26 17 32 9 6 17 20 19 31 3 11
17 26 32 33 15 7 27 18 26 25 0 9 -2 9 -6 0 -2 -7 -9 -13 -15 -13 -6 0 -5 6 2
15 7 9 20 13 28 10 11 -4 12 -2 4 7 -7 10 0 24 28 56 21 23 37 35 36 26 -1 -9
-13 -25 -27 -35 -24 -18 -24 -18 -1 -12 12 3 22 1 22 -5 0 -6 -12 -13 -27 -15
-25 -4 -25 -4 2 -2 17 1 38 5 48 10 10 4 17 3 17 -3 0 -6 -8 -13 -17 -15 -16
-4 -16 -5 -1 -6 21 -1 30 12 22 33 -4 11 -13 14 -25 11 -11 -4 -19 -2 -19 4 0
6 4 11 8 11 5 0 9 14 10 30 1 27 32 77 32 51 0 -5 -4 -13 -10 -16 -10 -6 -9
-40 3 -51 3 -4 4 3 2 15 -2 13 1 32 8 44 18 31 66 77 80 77 7 0 21 9 31 21 14
16 25 20 49 15 28 -5 30 -4 15 8 -15 11 -14 13 15 11 18 0 41 -6 51 -12 15 -8
24 -6 47 14 15 14 25 31 22 39 -3 8 0 14 6 14 6 0 11 6 11 14 0 19 112 60 140
51 15 -5 20 -3 16 3 -6 9 10 15 62 21 7 0 11 -3 8 -8z m62 2 c-10 -2 -26 -2
-35 0 -10 3 -2 5 17 5 19 0 27 -2 18 -5z m-2112 -50 c17 -23 17 -30 -1 -30 -8
0 -11 5 -8 10 3 6 -2 16 -12 24 -12 8 -14 13 -6 13 8 0 20 -8 27 -17z m-25 -3
c5 0 9 -4 9 -10 0 -5 -8 -6 -17 -3 -17 6 -17 6 0 -11 10 -10 21 -16 24 -13 9
10 43 -12 43 -28 0 -8 6 -15 13 -16 6 0 1 -5 -12 -12 -19 -9 -26 -8 -37 8 -8
10 -14 17 -15 14 0 -2 -2 -11 -4 -20 -2 -13 5 -16 40 -13 37 2 43 0 38 -13 -4
-10 -2 -14 4 -10 6 4 16 -6 22 -23 6 -18 6 -30 0 -30 -5 0 -9 8 -9 17 0 22
-10 12 -15 -16 -2 -12 0 -19 5 -16 11 7 50 -34 50 -52 0 -7 -4 -13 -10 -13 -5
0 -10 -11 -10 -25 0 -14 4 -25 9 -25 5 0 7 9 4 20 -8 31 4 23 16 -10 9 -28 8
-30 -14 -30 -19 0 -24 6 -27 33 -4 39 -22 43 -26 5 -3 -28 16 -45 60 -51 17
-3 23 -11 23 -28 0 -13 7 -27 15 -31 12 -5 11 -7 -4 -7 -17 -1 -17 -2 2 -18
14 -12 23 -35 27 -67 3 -27 10 -55 16 -62 6 -8 9 -20 6 -28 -3 -7 -1 -18 5
-24 5 -5 11 -31 12 -56 0 -25 5 -46 10 -46 5 0 3 -7 -4 -15 -9 -10 -9 -15 -1
-15 6 0 11 -5 11 -11 0 -5 -3 -8 -7 -6 -5 3 -8 -16 -9 -41 0 -26 1 -41 3 -34
3 6 9 9 15 6 5 -4 5 4 -2 16 -9 16 -9 25 -1 33 8 8 11 4 12 -14 0 -13 3 -33 5
-44 11 -45 12 -65 2 -65 -7 0 -7 -4 0 -12 10 -13 15 -40 13 -65 0 -7 -9 -10
-18 -7 -16 5 -16 4 0 -6 14 -9 17 -19 11 -43 -4 -18 -13 -37 -22 -43 -8 -6
-16 -28 -18 -50 -2 -27 -1 -35 6 -24 5 8 10 28 10 43 0 16 4 26 9 23 5 -4 14
6 20 21 9 22 10 23 7 5 -2 -13 0 -37 5 -55 5 -19 5 -35 -1 -41 -6 -6 -5 -15 2
-24 10 -11 8 -17 -7 -28 -18 -14 -18 -14 1 -14 16 0 17 -2 4 -10 -13 -8 -13
-10 -1 -10 11 0 9 -4 -5 -14 -10 -8 -16 -18 -11 -22 4 -4 7 -2 7 4 0 7 4 12 9
12 5 0 9 -10 9 -23 0 -13 -6 -24 -14 -24 -7 0 -11 4 -8 9 3 4 -2 8 -10 8 -19
0 -22 36 -3 43 6 2 9 8 5 12 -4 4 -14 1 -22 -7 -12 -13 -12 -19 1 -45 8 -17
23 -33 32 -36 12 -3 18 -15 19 -38 1 -24 -2 -29 -8 -19 -6 9 -10 10 -10 3 0
-6 5 -15 10 -18 6 -3 10 -11 10 -16 0 -6 -4 -7 -10 -4 -5 3 -10 1 -10 -4 0 -6
5 -11 10 -11 13 0 11 -118 -3 -127 -6 -3 -7 -1 -3 5 4 7 3 12 -3 12 -16 0 -22
-17 -8 -28 13 -11 15 -61 3 -80 -4 -7 -2 -12 4 -12 6 0 9 -4 6 -9 -3 -5 -7
-69 -7 -142 -1 -85 -6 -137 -13 -141 -8 -6 -8 -8 1 -8 7 0 9 -9 4 -27 -5 -18
-14 -27 -25 -27 -13 2 -14 -1 -5 -12 13 -16 33 -19 24 -4 -3 6 -1 10 4 10 6 0
11 -6 11 -14 0 -24 -135 -32 -183 -11 -22 9 -36 11 -32 6 3 -6 0 -11 -7 -12
-10 0 -10 -2 0 -6 22 -9 12 -21 -24 -28 -26 -4 -39 -2 -45 7 -7 10 -9 8 -9 -5
0 -15 -7 -18 -38 -16 -21 2 -42 0 -47 -3 -31 -19 -442 -51 -451 -36 -3 5 -13
4 -22 -1 -21 -10 -90 -3 -98 11 -4 5 -1 15 6 21 10 9 11 9 6 -1 -10 -17 18
-26 43 -12 12 6 21 7 21 2 0 -4 52 -8 115 -9 137 0 145 9 12 14 -50 2 -103 4
-117 4 -14 1 -35 -2 -47 -6 -20 -6 -22 -4 -17 21 5 28 5 28 -15 10 -12 -11
-21 -14 -21 -8 0 7 5 12 11 12 6 0 3 7 -5 16 -23 23 -20 30 4 9 11 -10 20 -13
20 -7 0 6 -4 14 -10 17 -5 3 -10 16 -10 27 0 12 -7 29 -15 38 -17 19 -37 110
-24 110 5 0 9 -8 9 -17 0 -12 3 -14 8 -6 9 14 27 5 34 -16 2 -8 12 -15 23 -17
35 -5 105 -28 105 -35 0 -13 89 -29 159 -29 73 0 101 6 101 22 0 5 6 15 13 21
19 18 97 59 97 51 0 -4 9 1 21 12 21 19 21 19 18 -6 -3 -17 -10 -25 -24 -25
-11 -1 -29 -6 -40 -12 -16 -10 -12 -11 25 -6 56 7 68 18 73 67 3 28 10 42 24
47 11 4 23 15 27 24 4 11 13 15 26 12 16 -4 22 2 31 36 6 23 18 48 26 54 9 7
14 15 11 19 -4 3 0 25 8 47 17 46 16 167 -1 167 -5 0 -4 4 4 9 11 7 9 10 -8
16 -11 3 -21 10 -21 14 0 19 -62 32 -133 29 -41 -2 -73 -6 -71 -9 2 -4 -18
-10 -44 -14 -26 -4 -60 -12 -77 -19 -48 -19 -130 -9 -157 20 -13 13 -29 24
-36 24 -9 0 -11 8 -8 23 3 12 3 16 0 10 -12 -26 -75 27 -81 68 -1 10 4 20 12
23 8 3 15 11 15 18 0 7 22 34 49 61 27 26 52 53 55 60 4 6 4 2 2 -10 -2 -13 0
-23 5 -23 8 0 13 22 10 43 0 4 3 7 7 7 5 0 18 9 30 20 12 12 22 16 22 10 0 -5
5 -10 10 -10 6 0 10 7 8 16 -4 23 122 110 134 92 4 -7 8 -10 8 -5 0 18 2 23
17 40 9 9 26 17 37 17 12 0 32 7 44 16 12 8 26 13 31 10 5 -4 11 -1 13 6 2 6
11 12 19 14 35 5 69 25 69 39 0 11 -11 15 -45 15 -43 0 -46 2 -52 30 -3 17
-10 33 -14 36 -5 3 -9 14 -9 25 0 10 -4 19 -10 19 -5 0 -7 7 -3 16 3 9 8 11
12 6 3 -6 6 16 7 48 0 32 7 72 14 90 11 27 11 33 0 40 -8 5 -14 29 -15 60 -1
28 -7 56 -14 63 -6 6 -11 7 -11 1 0 -6 5 -15 12 -22 9 -9 9 -12 0 -12 -16 0
-27 50 -15 70 12 17 -7 67 -20 54 -4 -4 -2 -13 4 -20 6 -7 8 -23 4 -34 -8 -24
-15 -21 -20 7 -1 10 -8 17 -14 16 -14 -4 -14 10 1 25 14 14 11 17 -22 26 l-25
7 25 -15 c18 -11 21 -15 8 -16 -9 0 -26 13 -37 29 -22 31 -26 42 -13 40 19 -3
32 2 32 12 0 8 -4 8 -14 0 -10 -8 -16 -9 -21 -1 -3 5 -1 10 4 10 6 0 11 5 11
11 0 6 -6 9 -14 6 -14 -6 -17 1 -30 68 -2 11 -7 28 -11 38 -7 16 3 22 28 18 5
-1 6 3 2 8 -3 6 -12 8 -19 5 -8 -3 -17 -1 -20 4 -3 5 11 9 32 10 20 1 38 6 40
12 2 5 8 10 13 10 6 0 7 -4 4 -10 -3 -5 -2 -10 4 -10 5 0 11 5 13 11 2 6 28
13 57 15 30 2 57 7 60 10 3 4 -9 4 -27 1 -23 -5 -31 -3 -26 4 4 7 21 9 40 6
24 -4 32 -2 28 5 -5 8 -1 9 10 5 10 -4 22 -7 27 -7z m1817 -46 c-24 -41 -42
-51 -62 -35 -7 6 -22 8 -31 4 -13 -4 -16 -3 -11 5 4 7 14 12 22 12 8 0 14 5
14 11 0 5 4 8 9 5 5 -3 14 1 21 9 7 8 16 13 20 10 5 -3 11 -1 15 5 3 5 10 10
15 10 5 0 0 -16 -12 -36z m-1330 -55 c1 -23 -2 -39 -5 -36 -9 9 -12 77 -3 77
4 0 8 -18 8 -41z m-1133 21 c3 -5 -1 -10 -9 -10 -9 0 -16 5 -16 10 0 6 4 10 9
10 6 0 13 -4 16 -10z m35 -4 c0 -3 -4 -8 -10 -11 -5 -3 -10 -1 -10 4 0 6 5 11
10 11 6 0 10 -2 10 -4z m-50 -78 c0 -10 2 -10 8 -1 9 15 82 6 82 -9 0 -10 -15
-8 -55 7 -16 6 -17 5 -9 -4 14 -15 87 -24 79 -10 -4 5 0 9 7 9 19 0 68 -23 68
-32 0 -4 7 -5 14 -2 13 5 13 2 3 -19 -6 -14 -16 -23 -22 -20 -5 2 -1 -3 9 -11
11 -9 25 -16 30 -16 6 0 4 5 -4 10 -13 8 -12 10 3 10 9 0 17 4 17 10 0 5 -7 6
-17 3 -11 -4 -14 -3 -9 5 10 17 36 15 42 -3 4 -8 17 -15 30 -15 22 0 30 -13
25 -42 -2 -12 14 -9 28 5 11 10 13 9 8 -6 -5 -13 0 -20 19 -27 14 -6 22 -14
19 -20 -3 -5 -3 -15 1 -22 5 -8 10 -6 15 8 7 18 8 18 8 -1 1 -11 10 -27 22
-35 11 -8 30 -35 41 -60 11 -25 22 -48 24 -52 3 -4 -5 -5 -16 -3 -11 2 -20 0
-20 -6 0 -5 -5 -9 -11 -9 -5 0 -7 5 -4 10 3 6 1 10 -4 10 -6 0 -11 -7 -11 -15
0 -8 5 -15 10 -15 6 0 10 -7 10 -15 0 -8 7 -15 15 -15 17 0 20 -16 5 -25 -5
-3 -10 -1 -10 4 0 6 -8 11 -17 11 -17 -1 -17 -1 -1 -11 10 -5 15 -16 12 -24
-4 -10 0 -15 12 -15 16 0 17 -2 4 -10 -13 -8 -12 -10 4 -10 12 0 16 5 12 15
-3 8 0 15 7 15 9 0 9 2 0 8 -7 4 -9 13 -4 21 5 7 11 9 14 4 10 -15 1 -64 -13
-73 -10 -6 -9 -9 1 -13 9 -3 9 -6 2 -6 -6 -1 -20 9 -30 22 -10 13 -24 22 -31
19 -6 -2 -12 1 -12 8 0 6 4 9 8 6 5 -3 9 1 9 9 0 19 -13 19 -20 1 -9 -22 -77
1 -70 23 5 13 3 14 -8 4 -18 -18 -39 -16 -62 5 -11 9 -17 11 -13 5 5 -10 -6
-13 -46 -11 -43 1 -46 2 -15 5 20 2 37 8 37 13 0 5 8 11 18 13 13 4 12 5 -5 6
-12 0 -24 5 -27 10 -3 5 -16 7 -29 4 -17 -4 -19 -2 -7 6 10 7 1 9 -34 7 -33
-3 -49 1 -53 10 -3 7 -21 17 -41 20 -58 11 -124 42 -116 55 4 7 0 9 -12 6 -11
-4 -30 0 -44 8 l-25 14 34 1 c42 0 37 8 -7 12 -18 1 -32 6 -32 10 0 4 -7 8
-16 8 -8 0 -13 4 -10 9 4 5 0 12 -6 15 -7 3 -3 3 10 0 24 -6 29 5 11 23 -9 9
-4 18 16 37 21 20 24 26 11 26 -9 0 -16 -4 -16 -10 0 -5 -6 -10 -12 -10 -7 0
0 11 15 25 15 14 27 34 27 44 0 13 7 19 25 19 14 0 25 -5 25 -10 0 -5 6 -3 14
4 10 9 11 15 2 20 -7 5 -6 8 5 8 8 0 20 -5 26 -11 9 -9 10 -7 6 10 -3 12 -1
21 6 21 6 0 11 -6 11 -12z m1148 -34 c1 -26 0 -45 -3 -43 -7 8 -12 89 -5 89 4
0 8 -21 8 -46z m-793 15 c5 -6 2 -9 -9 -9 -9 0 -25 7 -34 16 -15 15 -14 16 8
9 14 -4 29 -11 35 -16z m45 -18 c0 -5 3 -18 6 -28 6 -15 4 -16 -6 -6 -16 15
-22 43 -9 43 5 0 9 -4 9 -9z m760 -108 c0 -26 -2 -44 -4 -42 -8 8 -12 98 -4
93 4 -3 8 -26 8 -51z m-403 15 c-3 -8 -6 -5 -6 6 -1 11 2 17 5 13 3 -3 4 -12
1 -19z m414 -130 c2 -26 1 -50 -2 -53 -3 -2 -6 19 -8 47 -1 28 -5 57 -8 62 -4
8 -2 8 5 1 6 -5 12 -31 13 -57z m756 5 c-10 -10 -22 -13 -34 -9 -17 7 -17 8 0
17 9 6 15 15 11 21 -4 6 3 5 16 -2 20 -11 21 -13 7 -27z m-637 -15 c0 -11 -28
-10 -35 1 -3 6 4 9 15 8 11 -1 20 -5 20 -9z m-10 -28 c0 -5 -4 -10 -10 -10 -5
0 -10 5 -10 10 0 6 5 10 10 10 6 0 10 -4 10 -10z m723 -42 c-6 -29 -24 -58
-36 -58 -3 0 5 20 16 45 12 25 22 45 24 45 1 0 0 -15 -4 -32z m-1516 -26 c-14
-3 -16 -7 -6 -18 13 -15 9 -17 -15 -8 -19 7 -21 31 -3 37 6 2 19 1 27 -2 12
-4 12 -6 -3 -9z m698 -38 c3 -28 2 -44 -3 -36 -9 14 -15 99 -7 90 3 -3 8 -27
10 -54z m95 32 c0 -3 -4 -8 -10 -11 -5 -3 -10 -1 -10 4 0 6 5 11 10 11 6 0 10
-2 10 -4z m-1065 -16 c-3 -5 -12 -7 -20 -3 -21 7 -19 13 6 13 11 0 18 -4 14
-10z m2842 -62 c-3 -7 -5 -2 -5 12 0 14 2 19 5 13 2 -7 2 -19 0 -25z m-2853
-15 c55 -4 76 -10 72 -18 -3 -9 3 -11 17 -8 18 4 19 3 7 -6 -9 -7 -10 -11 -3
-11 6 0 15 5 18 10 3 6 11 10 16 10 6 0 7 -4 4 -10 -3 -5 0 -7 8 -4 8 3 18 0
22 -5 3 -6 10 -9 13 -7 4 2 19 -5 32 -16 l25 -20 -25 7 c-14 3 -32 7 -40 7 -8
1 -18 6 -22 12 -5 8 -8 7 -8 -1 0 -7 -7 -13 -16 -13 -8 0 -12 -5 -9 -11 4 -6
13 -8 21 -5 8 3 14 2 14 -2 0 -4 10 -13 23 -21 17 -10 19 -11 10 0 -20 21 -16
25 27 24 22 0 38 -4 36 -10 -2 -5 -8 -9 -14 -8 -6 2 -9 -4 -5 -13 4 -12 8 -12
13 -4 5 7 13 9 20 5 9 -6 11 -4 5 6 -7 11 -5 11 11 -1 34 -26 43 -44 32 -58
-8 -9 -6 -17 6 -31 15 -17 15 -18 -9 -29 -14 -7 -31 -12 -36 -12 -6 0 -17 -7
-26 -15 -8 -8 -19 -12 -25 -9 -6 4 -13 3 -17 -2 -17 -25 -57 -41 -81 -33 -20
7 -22 6 -8 -3 15 -11 14 -13 -6 -29 -18 -14 -36 -17 -75 -14 -29 3 -50 1 -47
-4 7 -11 -39 -7 -79 8 -16 6 -41 13 -55 15 -33 7 -67 32 -57 43 5 4 14 0 21
-10 7 -9 22 -17 32 -17 14 0 10 6 -15 21 -18 11 -39 18 -46 15 -39 -15 -73
114 -39 148 8 9 13 16 9 16 -3 0 1 10 9 22 9 12 16 30 16 39 0 9 7 20 16 23
12 5 15 2 9 -11 -11 -30 -11 -35 4 -41 9 -3 11 0 7 7 -4 7 -2 18 4 26 7 8 9
15 4 16 -5 0 0 4 11 9 l20 9 -20 0 c-17 1 -17 3 -5 11 18 11 68 12 174 3z
m996 -38 c0 -19 -3 -35 -7 -35 -5 0 -8 16 -8 35 0 19 3 35 7 35 4 0 8 -16 8
-35z m1288 -11 c13 -4 21 -12 19 -18 -3 -7 22 -12 77 -14 77 -2 82 -4 108 -34
24 -28 27 -40 26 -96 -1 -44 -6 -66 -15 -69 -10 -4 -11 -9 -3 -18 9 -11 5 -18
-15 -31 -19 -12 -24 -22 -19 -37 4 -13 3 -17 -6 -12 -7 4 -10 1 -8 -10 4 -21
-45 -53 -80 -54 -13 -1 -20 -5 -17 -11 3 -5 2 -10 -4 -10 -5 0 -13 5 -16 10
-3 6 -16 10 -28 9 -21 0 -21 -1 -2 -9 18 -7 18 -9 3 -15 -9 -4 -27 0 -40 9
-14 9 -28 13 -31 9 -4 -3 -16 4 -27 16 -15 19 -27 22 -60 19 -22 -2 -40 0 -40
4 0 5 9 8 20 8 11 0 20 5 20 11 0 6 -9 8 -22 4 -22 -7 -23 -7 -3 8 19 14 18
15 -8 10 -20 -4 -26 -10 -22 -21 4 -12 3 -13 -10 -2 -8 7 -12 17 -8 23 3 5 2
7 -3 4 -11 -7 -23 1 -43 26 -12 15 -11 17 3 17 10 0 15 -4 11 -9 -3 -5 -2 -12
3 -15 4 -2 8 5 8 17 0 20 -4 22 -38 19 -21 -2 -38 0 -38 6 0 5 12 8 27 6 15
-1 34 1 43 6 10 6 5 8 -18 5 -44 -5 -82 10 -83 32 0 10 -3 13 -6 6 -5 -15 -32
-1 -69 35 -17 16 -19 22 -8 22 19 0 46 -25 36 -34 -3 -4 2 -4 12 0 12 5 17 4
13 -3 -4 -5 6 -10 23 -10 17 0 30 4 30 9 0 4 -3 7 -7 7 -5 -1 -17 -1 -27 0
-20 1 -20 1 0 16 10 8 14 15 7 15 -6 0 -15 -4 -18 -10 -3 -5 -12 -10 -18 -10
-16 1 23 30 39 30 7 0 15 -8 17 -17 3 -10 4 -7 4 8 -1 31 -34 34 -57 5 -15
-17 -17 -17 -30 0 -13 15 -13 17 0 12 8 -2 21 1 28 9 8 7 18 10 23 7 6 -3 17
2 25 12 9 11 13 13 9 4 -6 -13 -5 -13 7 0 19 22 84 42 109 35 15 -5 22 -2 26
14 3 12 9 21 13 21 5 0 16 3 26 7 12 4 15 3 10 -5 -4 -7 -2 -12 3 -12 6 0 11
7 11 15 0 22 16 18 17 -4 1 -11 -6 -21 -15 -23 -12 -3 -9 -6 9 -9 24 -5 26 -4
22 28 -3 30 -1 33 24 33 16 0 38 -3 51 -6z m-183 -44 c3 -6 -1 -7 -9 -4 -18 7
-21 14 -7 14 6 0 13 -4 16 -10z m-407 -44 c-22 -16 -22 -20 -2 -40 8 -9 11
-16 5 -16 -6 0 -14 0 -18 0 -15 -1 -11 50 5 60 24 14 30 12 10 -4z m-1331 -61
c0 -8 -4 -12 -9 -9 -5 3 -6 10 -3 15 9 13 12 11 12 -6z m770 -357 c-3 -7 -5
-2 -5 12 0 14 2 19 5 13 2 -7 2 -19 0 -25z m1781 -93 c-3 -3 -9 2 -12 12 -6
14 -5 15 5 6 7 -7 10 -15 7 -18z m-1761 -29 c-3 -8 -1 -16 4 -18 12 -4 1 -38
-12 -38 -5 0 -9 5 -9 10 0 6 6 10 13 10 9 0 9 2 -1 8 -11 8 -7 42 5 42 3 0 3
-6 0 -14z m1743 -320 c0 -11 -19 -15 -25 -6 -3 5 1 10 9 10 9 0 16 -2 16 -4z
m-10 -40 c0 -8 -4 -17 -8 -20 -4 -2 -8 4 -8 15 0 10 4 19 8 19 4 0 8 -6 8 -14z
m-1773 -68 c-3 -8 -6 -5 -6 6 -1 11 2 17 5 13 3 -3 4 -12 1 -19z m-747 -116
c0 -13 -12 -22 -22 -16 -10 6 -1 24 13 24 5 0 9 -4 9 -8z m1783 -9 c-7 -2 -19
-2 -25 0 -7 3 -2 5 12 5 14 0 19 -2 13 -5z m-2379 -139 c9 -24 7 -28 -9 -14
-17 14 -20 30 -6 30 5 0 12 -7 15 -16z m2259 -1 c-7 -2 -21 -2 -30 0 -10 3 -4
5 12 5 17 0 24 -2 18 -5z m80 0 c3 -5 -6 -9 -19 -9 -13 -1 -21 2 -18 7 6 11
31 12 37 2z m-53 -13 c0 -5 -12 -10 -27 -9 l-28 1 25 8 c14 4 26 8 28 9 1 1 2
-3 2 -9z m-1485 -50 c3 -5 -1 -10 -9 -10 -9 0 -16 5 -16 10 0 6 4 10 9 10 6 0
13 -4 16 -10z m940 -345 c28 -14 64 -27 80 -29 17 -2 70 -9 119 -15 49 -7 93
-14 97 -16 8 -6 18 -55 23 -115 2 -25 7 -62 11 -82 4 -20 8 -52 10 -70 1 -18
6 -57 10 -85 l8 -53 -81 0 c-44 0 -84 -4 -87 -10 -3 -5 -21 -10 -39 -10 -20 0
-40 -8 -51 -20 -10 -11 -24 -20 -32 -20 -8 0 -19 -4 -26 -10 -106 -85 -158
-160 -171 -245 -11 -68 2 -110 50 -164 24 -26 41 -51 38 -54 -13 -13 -4 -111
15 -159 5 -13 10 -27 11 -33 2 -5 17 -39 34 -75 16 -36 29 -72 28 -80 -1 -8
-3 -66 -3 -128 -1 -108 -3 -114 -28 -140 -14 -15 -31 -37 -37 -47 -12 -20 -12
-20 -30 1 -11 11 -29 26 -40 32 -17 9 -23 25 -29 69 -9 73 -52 212 -73 236 -8
9 -11 17 -6 17 18 0 37 65 40 139 3 62 -1 85 -20 126 l-23 50 20 35 c17 30 19
47 14 116 -6 85 -20 128 -49 155 -10 9 -18 20 -18 24 0 19 -112 90 -157 99
-15 3 -63 7 -105 8 -92 2 -85 -15 -94 208 -3 85 -7 187 -9 226 -3 91 1 98 57
90 25 -4 92 -7 149 -7 94 0 124 4 223 27 17 4 41 20 54 36 23 27 26 28 46 13
11 -8 44 -26 71 -40z m1169 -583 c-7 -25 -24 -30 -24 -7 0 9 -7 18 -16 22 -15
6 -15 8 2 20 24 17 46 -2 38 -35z m-68 -76 c3 -64 1 -70 -23 -90 -52 -41 -107
-75 -115 -70 -10 7 -6 74 5 74 5 0 7 5 5 12 -3 7 1 19 8 28 7 8 31 39 54 68
23 29 46 52 52 50 6 -2 12 -35 14 -72z m-166 24 c-12 -16 -26 -30 -31 -30 -5
0 -9 -9 -9 -20 0 -12 -7 -34 -15 -50 -9 -17 -13 -30 -10 -30 3 0 -2 -18 -11
-40 -9 -22 -13 -51 -10 -64 5 -21 2 -24 -32 -29 -20 -4 -59 -13 -87 -21 -27
-8 -59 -18 -70 -21 -16 -5 -23 2 -37 37 -10 24 -18 53 -18 65 0 33 -17 71 -50
111 -17 20 -30 40 -30 44 0 4 20 21 44 37 41 28 50 30 152 34 60 1 137 4 172
5 l63 2 -21 -30z m318 -73 c-25 -9 -33 -4 -24 18 5 13 9 13 26 3 20 -13 20
-13 -2 -21z m-2383 -34 c84 -19 89 -21 75 -37 -5 -7 -11 -25 -12 -40 -3 -29
-14 -35 -75 -34 -35 1 -43 4 -43 19 0 15 -33 36 -51 32 -24 -6 -102 -2 -140 7
-38 9 -48 16 -52 36 -5 29 6 33 103 37 79 3 104 0 195 -20z m1559 17 c27 0 77
-43 94 -80 11 -25 32 -98 32 -114 0 -4 -11 -5 -24 -2 -48 12 -103 -58 -91
-116 6 -26 10 -28 53 -28 35 0 53 6 72 23 47 43 57 41 85 -18 25 -54 32 -85
18 -85 -5 0 -23 9 -42 21 -26 15 -43 19 -72 14 -34 -6 -40 -11 -49 -43 -5 -21
-10 -45 -10 -54 0 -23 44 -51 81 -51 16 0 29 -2 29 -4 0 -11 -34 -53 -42 -53
-19 0 -78 -75 -76 -95 4 -26 39 -31 80 -11 29 15 33 15 52 -2 42 -36 74 -46
102 -33 19 8 25 17 21 32 -4 15 1 23 19 31 28 13 30 11 67 -53 l26 -46 -22
-12 c-15 -8 -32 -8 -55 -2 -45 13 -92 -3 -92 -32 1 -41 27 -61 95 -73 20 -3
27 1 35 20 10 28 42 49 62 41 22 -9 58 -80 47 -96 -26 -41 5 -38 71 6 29 19
53 35 55 35 2 0 33 18 69 40 l66 40 68 -10 c91 -15 159 -35 140 -43 -15 -5
-74 -15 -133 -21 -17 -1 -39 -8 -50 -14 -11 -6 -56 -18 -100 -27 -44 -9 -102
-23 -129 -31 -60 -18 -66 -18 -86 1 -20 18 -86 26 -118 14 -30 -11 -28 -43 4
-64 29 -19 123 -26 161 -12 23 8 23 8 5 -22 -9 -17 -23 -31 -31 -31 -18 0
-127 -67 -156 -96 -28 -28 -42 -29 -69 -9 -11 8 -25 15 -32 15 -19 0 -212 111
-276 158 -32 23 -107 92 -168 152 l-110 110 1 67 c1 61 -3 82 -32 148 -15 33
-49 178 -49 208 l0 28 33 -17 c39 -21 219 -24 254 -6 20 11 22 19 19 70 -2 54
23 206 39 232 4 6 14 9 22 6 8 -3 25 -6 37 -6z m-1202 -16 c5 -3 8 -33 6 -65
-3 -57 -3 -58 -19 -38 -17 23 -27 23 -160 2 -33 -5 -37 -3 -41 22 -4 17 -1 28
8 32 8 3 14 11 14 19 0 31 42 46 114 40 38 -4 73 -9 78 -12z m2310 -4 c41 -12
52 -30 37 -63 -11 -24 -85 -62 -143 -72 -33 -7 -35 -6 -35 22 0 31 -6 66 -16
101 -7 21 -5 22 56 22 35 0 80 -5 101 -10z m-228 -16 c3 -9 6 -26 6 -39 0 -13
4 -26 8 -29 5 -3 7 -19 4 -37 -3 -18 -8 -26 -12 -19 -4 6 -31 17 -61 23 -49
11 -55 16 -65 47 -13 39 -6 47 51 61 48 11 62 10 69 -7z m-2910 -15 c70 -17
99 -34 102 -62 6 -55 -136 -76 -238 -36 -29 11 -54 22 -56 23 -1 2 4 15 11 29
8 15 17 24 20 21 3 -3 15 2 26 13 25 23 71 27 135 12z m2731 -60 c10 -15 6
-17 -55 -25 l-55 -7 19 22 c20 23 80 29 91 10z m-2520 -9 c-3 -5 -13 -10 -21
-10 -8 0 -14 5 -14 10 0 6 9 10 21 10 11 0 17 -4 14 -10z m611 -64 c-8 -48
-18 -76 -27 -76 -5 0 -9 -9 -9 -20 0 -16 7 -20 38 -20 20 0 71 -7 112 -16 82
-17 253 -14 303 5 16 6 46 8 67 5 l39 -6 6 -63 c7 -62 4 -125 -9 -175 -3 -14
3 -54 14 -90 32 -108 50 -201 54 -275 2 -38 5 -72 6 -75 17 -39 -27 -130 -92
-193 -28 -27 -52 -46 -54 -44 -3 3 -24 0 -47 -5 -23 -6 -49 -11 -57 -13 -17
-2 -169 -46 -241 -70 -26 -8 -56 -15 -67 -15 -11 0 -22 -4 -24 -10 -1 -5 -23
-14 -48 -19 -25 -5 -61 -14 -80 -20 -166 -47 -259 -71 -282 -71 -16 0 -28 -5
-28 -11 0 -18 160 -4 250 21 188 52 443 131 454 141 5 5 15 4 21 -1 17 -14
104 4 164 35 63 31 132 100 156 157 11 24 27 48 36 55 10 8 15 26 15 52 -1 23
0 41 1 41 1 0 13 -16 26 -35 18 -26 22 -44 20 -77 -7 -73 -6 -153 0 -179 5
-21 -3 -34 -53 -82 -63 -61 -70 -65 -70 -42 0 24 -45 28 -100 10 -59 -20 -65
-29 -51 -80 10 -36 10 -36 -32 -54 l-42 -18 -8 33 c-8 29 -13 34 -40 35 -32 1
-94 1 -111 0 -5 -1 -6 -25 -2 -55 5 -50 4 -54 -17 -60 -12 -3 -37 -6 -55 -6
-26 0 -34 5 -42 26 -10 26 -12 27 -86 22 -41 -3 -79 -9 -84 -14 -4 -5 -10 -25
-11 -44 -3 -30 -10 -38 -48 -57 -61 -31 -80 -30 -78 5 2 26 1 27 -51 26 -29
-1 -65 -7 -81 -13 -26 -11 -27 -15 -25 -63 2 -28 6 -53 9 -56 3 -3 -34 -14
-82 -25 -48 -10 -96 -20 -105 -22 -11 -2 -19 2 -19 11 -1 14 -4 26 -9 42 -1 4
-1 17 0 29 1 16 -6 26 -25 33 -32 12 -122 13 -129 1 -3 -4 -6 -34 -7 -65 l-2
-56 -36 -1 c-56 -2 -93 2 -131 11 -31 8 -36 14 -38 42 -5 61 -9 66 -69 74 -31
4 -68 3 -82 -3 -22 -7 -26 -15 -25 -46 1 -25 -3 -37 -12 -37 -18 0 -104 40
-105 49 -2 22 -10 52 -18 75 -10 24 -15 26 -75 26 -71 0 -93 -15 -88 -58 3
-15 0 -22 -7 -18 -6 4 -11 20 -11 36 0 16 -4 39 -9 52 -5 14 -12 49 -16 80 -6
51 -5 56 15 61 13 3 33 -1 45 -9 12 -8 60 -22 106 -30 115 -22 630 -29 741
-11 43 8 80 15 82 18 2 2 -156 4 -352 4 -300 0 -375 3 -469 19 -83 13 -113 22
-113 33 0 8 -8 31 -19 53 -24 50 -20 187 8 255 43 105 94 163 191 213 57 30
163 58 179 48 22 -14 41 7 41 45 0 43 -2 42 85 39 31 -1 79 9 125 24 43 15 98
26 129 26 47 0 52 -2 46 -17 -14 -34 -27 -104 -21 -118 4 -11 17 -13 53 -9 91
11 263 -69 332 -155 37 -46 47 -48 31 -7 -15 41 -78 97 -146 130 -69 34 -184
67 -214 61 -19 -4 -21 -1 -15 28 16 71 30 78 104 52 22 -8 41 -11 41 -8 0 4 3
4 6 1 3 -4 1 -15 -5 -27 -10 -18 -7 -21 30 -31 52 -14 89 -10 103 13 15 24 -3
50 -40 58 -16 3 -52 18 -80 33 -29 14 -57 26 -63 26 -6 0 -11 3 -11 8 0 4 -18
8 -40 9 -22 0 -47 7 -56 14 -13 11 -11 14 16 25 17 8 29 18 25 24 -9 14 -58
13 -74 -2 -11 -11 -13 -10 -9 2 6 20 29 23 93 15 45 -5 52 -9 48 -24 -7 -28
14 -34 37 -11 16 16 28 19 59 14 47 -8 53 -12 68 -46 11 -25 18 -28 57 -28 26
0 51 6 59 15 22 21 10 54 -22 61 -35 8 -78 23 -123 44 -36 17 -36 17 -20 42
14 21 21 24 41 16 14 -5 30 -7 37 -4 20 8 84 -19 100 -42 18 -26 70 -31 60 -7
-4 11 1 15 19 15 13 0 31 10 39 22 14 20 14 24 -1 40 -9 10 -21 18 -27 18 -12
0 -106 90 -106 102 0 11 54 4 68 -9 16 -15 62 -17 62 -3 0 6 -5 10 -11 10 -5
0 -7 5 -3 11 3 6 14 9 24 6 27 -7 59 19 53 42 -8 30 -58 44 -99 26 -19 -8 -34
-21 -34 -31 0 -11 -5 -14 -16 -10 -9 3 -29 6 -45 6 -28 0 -29 1 -15 23 8 12
18 43 21 70 8 55 9 55 67 63 41 5 44 4 56 -25 10 -22 20 -31 38 -31 27 0 30 8
10 24 -10 7 -12 18 -6 32 7 17 15 20 40 16 29 -4 31 -7 26 -36z m-574 -7 c-15
-6 -30 -5 -40 1 -13 7 -8 9 23 9 35 0 37 -1 17 -10z m206 -9 c-15 -23 -31 -26
-47 -7 -14 18 -4 27 31 27 26 0 27 -2 16 -20z m2182 6 c0 -2 -7 -6 -15 -10 -8
-3 -15 -1 -15 4 0 6 7 10 15 10 8 0 15 -2 15 -4z m115 -16 c8 0 19 -18 25 -40
6 -21 15 -42 20 -45 6 -3 10 -11 10 -16 0 -13 -27 3 -61 34 -14 13 -35 30 -47
36 -12 6 -22 15 -22 19 0 11 54 30 58 20 2 -4 10 -8 17 -8z m-2416 -14 c9 -11
6 -12 -14 -8 -14 2 -28 8 -31 13 -9 15 33 10 45 -5z m188 -52 c-3 -3 -16 -2
-31 2 l-26 6 28 29 27 29 3 -31 c2 -17 1 -33 -1 -35z m1677 50 c3 -8 2 -12 -4
-9 -6 3 -10 10 -10 16 0 14 7 11 14 -7z m-2076 -20 c11 -22 9 -29 -15 -60 -16
-19 -37 -37 -48 -40 -11 -4 -22 -9 -25 -13 -12 -15 -168 -67 -176 -58 -10 10
85 96 165 149 40 26 77 48 81 48 4 0 12 -11 18 -26z m2355 9 c4 -3 3 -10 -2
-17 -10 -12 -46 -12 -101 1 -22 5 -20 7 20 17 41 11 61 11 83 -1z m-2151 -34
l37 -12 -21 -19 c-12 -10 -28 -18 -37 -19 -9 0 -29 -3 -45 -5 -16 -3 -36 -2
-44 1 -12 5 -12 9 4 26 11 12 18 23 17 25 -2 2 -3 10 -3 18 0 15 1 15 92 -15z
m1797 0 c-13 -26 -23 -18 -14 10 3 12 11 19 16 16 5 -4 5 -14 -2 -26z m532 1
c24 -21 27 -28 13 -25 -10 2 -37 7 -59 10 l-39 7 24 19 c14 10 26 19 27 19 1
0 16 -13 34 -30z m-232 -30 c3 0 -15 -14 -40 -32 -24 -18 -47 -36 -50 -41 -11
-15 -27 1 -34 33 -4 16 -11 32 -16 35 -5 4 -9 12 -9 19 0 10 15 10 73 0 39 -7
74 -13 76 -14z m505 -8 c17 3 37 7 44 9 9 3 14 -9 17 -41 2 -34 1 -40 -6 -22
-7 20 -13 22 -43 17 -40 -8 -71 6 -79 35 -4 17 -2 18 15 9 11 -6 34 -9 52 -7z
m-2499 -2 c3 -5 -1 -10 -10 -10 -9 0 -13 5 -10 10 3 6 8 10 10 10 2 0 7 -4 10
-10z m295 -5 c-7 -8 -20 -15 -29 -15 -11 1 -8 5 9 15 32 18 35 18 20 0z m1879
-10 c46 -8 87 -12 91 -10 11 7 40 -5 40 -16 0 -5 -39 -9 -87 -10 -49 0 -109
-4 -135 -8 -27 -4 -48 -6 -48 -3 0 8 42 62 48 62 4 0 45 -7 91 -15z m-2234
-55 c-3 -5 -16 -10 -28 -10 -18 0 -19 2 -7 10 20 13 43 13 35 0z m115 0 c13
-8 13 -11 -1 -25 -10 -11 -25 -13 -47 -9 -39 8 -41 17 -4 31 36 14 35 14 52 3z
m-221 -18 l44 -18 -26 -16 c-31 -21 -115 -27 -126 -9 -7 10 -17 8 -49 -8 -47
-24 -57 -26 -43 -8 6 6 22 26 35 43 21 26 32 31 73 33 30 1 66 -5 92 -17z
m2483 -28 c-37 -22 -51 -25 -90 -20 -26 3 -74 9 -107 12 -33 3 -61 7 -63 9 -2
2 36 6 85 10 48 3 99 7 113 9 14 2 43 4 65 4 l40 2 -43 -26z m-2178 -26 c27
-24 14 -32 -28 -18 -20 6 -40 9 -45 6 -5 -4 -12 -2 -16 4 -3 5 0 10 8 10 8 0
17 10 20 22 6 23 10 21 61 -24z m-145 6 c2 -2 -20 -4 -50 -3 -38 0 -48 3 -34
9 18 7 73 3 84 -6z m1771 -19 c0 -14 -4 -25 -10 -25 -5 0 -10 11 -10 25 0 14
5 25 10 25 6 0 10 -11 10 -25z m638 -1 c-2 -1 -16 0 -33 3 -25 5 -27 7 -10 13
17 6 52 -7 43 -16z m-304 1 c49 -8 90 -16 92 -18 3 -3 -122 -79 -141 -85 -5
-2 -20 -8 -32 -14 -32 -16 -46 -6 -65 45 -14 40 -15 47 -2 66 18 25 31 25 148
6z m429 1 c3 -8 18 -16 34 -18 23 -3 20 -5 -14 -9 -37 -4 -42 -2 -46 18 -5 25
17 32 26 9z m-106 -50 c4 -3 -2 -6 -13 -6 -10 0 -62 -5 -114 -10 -52 -5 -96
-7 -99 -5 -2 3 19 15 48 29 48 22 55 23 112 11 33 -7 63 -16 66 -19z m-2802
-26 c-4 -6 -24 -19 -46 -31 l-41 -20 34 44 c27 36 35 41 46 30 7 -7 10 -17 7
-23z m335 36 c0 -2 -7 -9 -15 -16 -12 -10 -15 -10 -15 4 0 9 7 16 15 16 8 0
15 -2 15 -4z m-164 -19 c3 -2 -23 -10 -56 -17 -63 -13 -76 -11 -67 14 4 11 20
13 62 11 32 -2 59 -6 61 -8z m2791 -3 c-3 -3 -12 -4 -19 -1 -8 3 -5 6 6 6 11
1 17 -2 13 -5z m-652 -84 c-3 -6 -13 -10 -21 -10 -8 0 -14 -4 -14 -9 0 -5 -15
-1 -34 8 -25 12 -31 19 -24 29 6 6 17 12 24 12 8 0 14 6 14 13 0 7 5 18 12 25
10 10 16 5 31 -23 10 -20 15 -40 12 -45z m540 28 c4 -3 8 -12 9 -20 1 -7 8
-23 14 -35 15 -28 11 -28 -73 -8 -33 8 -73 14 -88 15 -37 0 -26 17 27 40 39
17 98 21 111 8z m150 -7 c3 -5 1 -12 -5 -16 -5 -3 -10 1 -10 9 0 18 6 21 15 7z
m81 -18 c12 -16 27 -39 34 -53 12 -23 12 -24 -3 -11 -11 8 -28 11 -47 7 -17
-3 -42 -1 -58 5 l-27 11 35 13 c26 9 35 18 34 34 -1 28 8 27 32 -6z m-476 2
c-23 -12 -118 -20 -107 -8 5 4 88 20 117 21 8 1 4 -5 -10 -13z m-2550 -35 c0
-12 -20 -21 -116 -50 -39 -12 -81 -20 -92 -18 -18 2 -11 10 35 41 49 32 64 37
115 37 33 0 58 -4 58 -10z m450 -10 c0 -5 -7 -10 -15 -10 -8 0 -15 5 -15 10 0
6 7 10 15 10 8 0 15 -4 15 -10z m1720 -16 c0 -8 -4 -12 -10 -9 -5 3 -10 10
-10 16 0 5 5 9 10 9 6 0 10 -7 10 -16z m257 -20 c-26 -20 -47 -42 -48 -48 0
-11 -37 61 -38 77 -1 4 29 7 66 7 l66 0 -46 -36z m253 16 l25 -7 -25 -6 c-14
-3 -45 -9 -71 -12 -25 -3 -73 -14 -107 -24 -34 -11 -62 -16 -62 -13 0 9 67 52
80 52 5 0 10 5 10 10 0 12 112 12 150 0z m370 -59 c0 -22 30 -37 41 -20 4 7 5
19 2 28 -3 9 15 -13 40 -49 25 -36 55 -76 66 -89 21 -24 26 -41 21 -71 -3 -23
-5 -23 -59 3 l-50 24 30 29 30 29 -26 22 c-14 13 -35 23 -45 23 -22 0 -53 -28
-45 -41 4 -5 -1 -9 -9 -9 -8 0 -24 21 -36 46 -24 56 -24 51 0 57 11 3 20 12
20 21 0 9 5 16 10 16 6 0 10 -9 10 -19z m-192 -21 c27 -36 49 -38 61 -7 9 21
9 21 16 2 5 -11 14 -35 21 -52 7 -18 11 -33 9 -33 -2 0 -10 -3 -19 -6 -10 -4
-16 -1 -16 8 0 21 -57 46 -133 59 -37 6 -66 13 -64 15 8 8 82 43 93 44 5 0 20
-13 32 -30z m-183 0 c-3 -5 -25 -9 -48 -9 -40 1 -40 2 -12 9 44 11 67 11 60 0z
m-2325 -42 c0 -11 -28 -10 -35 1 -3 6 4 9 15 8 11 -1 20 -5 20 -9z m1477 -212
c110 -84 222 -146 340 -185 71 -24 107 -27 101 -9 -6 16 138 101 172 102 33 1
66 61 47 85 -10 13 -7 12 15 -2 15 -9 30 -13 33 -8 3 5 1 12 -5 16 -20 13 -9
23 33 28 23 4 60 11 82 16 22 5 90 18 150 30 61 12 128 26 150 32 37 9 47 7
136 -35 129 -61 180 -60 193 4 l6 31 45 -32 c43 -31 105 -92 105 -104 0 -4 12
-25 28 -48 67 -102 84 -166 78 -280 -6 -103 -24 -146 -83 -202 -26 -25 -44
-47 -41 -50 10 -10 52 5 92 33 41 28 44 32 73 99 10 23 21 43 24 43 9 0 28
-119 24 -150 -2 -14 -4 -33 -4 -44 -1 -15 -6 -17 -30 -13 -37 8 -42 -5 -46
-108 -1 -40 -5 -78 -9 -83 -3 -5 -21 -17 -40 -26 -26 -12 -41 -14 -61 -6 -14
5 -23 15 -20 20 10 16 -15 79 -33 84 -9 3 -33 3 -52 2 -38 -4 -37 -2 -39 -91
-1 -38 -4 -41 -49 -62 -26 -13 -64 -25 -84 -29 -36 -6 -37 -6 -43 33 -3 21 -8
51 -10 67 -6 36 -31 55 -70 56 -66 0 -72 -6 -71 -73 l1 -61 -65 -23 c-36 -12
-82 -23 -103 -23 -31 0 -39 4 -47 26 -13 33 -13 36 3 29 6 -4 4 0 -7 9 -10 8
-16 19 -13 23 13 21 -14 36 -69 41 -69 6 -84 -8 -84 -75 l0 -43 -42 0 c-24 0
-75 9 -114 21 l-72 21 -6 57 c-8 68 -13 76 -51 85 -89 21 -85 22 -84 -20 3
-66 0 -74 -18 -68 -84 28 -110 53 -116 114 -3 25 -7 54 -10 65 -5 24 -49 58
-79 60 -28 2 -58 56 -56 100 1 17 -1 36 -6 43 -4 6 -9 28 -11 48 -3 20 -8 40
-11 45 -9 15 -31 10 -38 -7 -5 -12 -10 -13 -19 -6 -17 14 -36 1 -34 -23 2 -15
-3 -19 -18 -17 -25 4 -55 38 -55 64 0 21 -47 66 -89 85 -20 8 -29 8 -40 0 -12
-10 -13 -9 -8 6 4 10 3 16 -2 13 -31 -19 -87 175 -79 271 7 76 22 87 31 24 3
-18 10 -38 16 -44 6 -6 11 -17 11 -24 0 -8 7 -30 17 -51 9 -20 16 -40 15 -43
-1 -3 22 -26 50 -50 51 -43 181 -109 217 -109 11 0 25 -18 41 -52 13 -29 43
-79 67 -110 29 -40 38 -58 28 -58 -14 0 -14 -3 -1 -27 29 -57 120 -138 198
-177 72 -36 84 -39 185 -43 109 -4 200 5 195 21 -1 5 -56 8 -123 7 -100 -2
-132 2 -185 19 -35 12 -64 26 -64 31 0 5 -6 9 -13 9 -13 0 -53 31 -115 87 -34
32 -23 48 12 18 17 -14 40 -28 53 -31 13 -4 23 -10 23 -15 0 -5 9 -9 21 -9 11
0 44 -11 72 -23 29 -13 79 -29 113 -35 75 -15 178 -16 169 -2 -3 6 -19 10 -35
10 -16 0 -41 5 -57 11 -15 6 -55 19 -88 29 -88 26 -167 62 -195 88 -13 12 -27
22 -31 22 -19 0 -159 163 -159 185 0 5 -25 37 -48 61 -7 7 -19 11 -26 8 -22
-9 -160 65 -208 110 -24 23 -52 61 -63 84 -11 23 -22 42 -25 42 -3 0 -5 30 -5
66 0 36 -2 92 -5 124 l-6 59 77 -80 c42 -43 108 -103 146 -133z m763 208 c0
-2 -26 -21 -57 -41 -32 -21 -59 -41 -61 -45 -9 -19 -29 -5 -41 27 -16 46 -16
49 11 56 25 6 148 8 148 3z m-245 -173 c3 -5 1 -12 -4 -15 -5 -3 -11 1 -15 9
-6 16 9 21 19 6z m-671 -400 c-6 -6 -24 19 -24 34 1 6 7 1 15 -9 8 -11 12 -22
9 -25z m-417 -48 c-3 -3 -11 -2 -17 2 -9 6 -9 10 1 16 14 8 27 -7 16 -18z
m590 -35 c-3 -8 -6 -5 -6 6 -1 11 2 17 5 13 3 -3 4 -12 1 -19z m-830 -56 c1
-12 -2 -22 -7 -22 -6 0 -10 4 -10 9 0 5 -3 17 -7 27 -4 11 -2 15 7 12 7 -2 15
-14 17 -26z m-263 -61 c3 -5 -7 -11 -22 -14 -31 -6 -37 -3 -27 12 8 13 42 14
49 2z m1246 -87 c0 -2 -7 -4 -15 -4 -8 0 -15 4 -15 10 0 5 7 7 15 4 8 -4 15
-8 15 -10z m-2595 -4 c3 -5 -1 -10 -10 -10 -9 0 -13 5 -10 10 3 6 8 10 10 10
2 0 7 -4 10 -10z m1049 1 c3 -5 -1 -14 -9 -21 -8 -7 -15 -10 -15 -7 0 3 -3 12
-6 21 -7 17 20 23 30 7z m1581 -10 c3 -5 1 -12 -4 -16 -6 -3 -7 -13 -4 -22 4
-11 3 -14 -5 -9 -14 9 -16 56 -3 56 6 0 12 -4 16 -9z m-2319 -56 c-1 -26 -31
-36 -39 -12 -7 20 4 37 23 37 13 0 17 -7 16 -25z m2574 -105 c0 -18 -36 -38
-47 -26 -3 3 -3 16 1 30 4 18 11 23 26 19 11 -3 20 -14 20 -23z m1072 13 c6
-29 -3 -63 -17 -63 -7 0 -12 8 -10 18 1 9 -2 27 -6 40 -7 18 -5 22 11 22 10 0
20 -8 22 -17z m-319 -21 c-8 -5 -9 -13 -3 -22 14 -22 12 -50 -2 -47 -13 2 -25
29 -27 60 -1 11 6 17 22 17 14 0 18 -3 10 -8z m-353 -47 c0 -9 -12 -20 -26
-25 -34 -13 -34 -13 -34 15 0 21 5 25 30 25 20 0 30 -5 30 -15z"/>
<path d="M6930 10623 c-70 -47 -164 -124 -263 -216 -174 -161 -287 -330 -287
-428 0 -27 4 -49 9 -49 11 0 21 25 21 51 0 24 80 169 129 234 21 28 69 79 106
115 37 36 89 87 116 113 31 31 55 47 64 43 16 -6 173 40 190 55 5 5 17 9 27 9
10 0 18 5 18 10 0 6 6 10 14 10 7 0 20 7 27 17 13 15 10 16 -35 10 -27 -4 -59
-13 -70 -20 -24 -15 -116 -48 -116 -41 0 2 27 24 60 48 32 24 67 51 75 60 33
32 -28 18 -85 -21z"/>
<path d="M7056 10539 c-14 -11 -26 -25 -26 -30 0 -5 -7 -17 -16 -26 -75 -85
-149 -191 -140 -201 16 -16 86 59 184 196 56 80 56 106 -2 61z"/>
<path d="M6985 10263 c-22 -2 -51 -6 -65 -9 -20 -4 -22 -7 -9 -14 17 -10 279
0 279 10 0 8 -91 21 -135 18 -16 -1 -48 -3 -70 -5z"/>
<path d="M7115 10188 c-11 -7 -25 -16 -31 -22 -7 -6 -29 -24 -49 -41 -21 -16
-47 -38 -59 -49 -11 -10 -40 -31 -64 -48 -33 -22 -40 -33 -33 -45 10 -19 112
-60 196 -79 133 -30 138 -9 7 31 -48 15 -91 31 -97 35 -5 4 -23 10 -40 14
l-30 8 25 19 c14 11 48 35 75 54 28 20 75 58 105 85 42 38 50 50 35 50 -11 -1
-29 -6 -40 -12z"/>
<path d="M6646 9485 c4 -8 10 -15 15 -15 5 0 9 -5 9 -11 0 -6 15 -29 33 -52
39 -51 50 -69 78 -127 27 -58 30 -187 6 -279 -18 -68 -15 -89 9 -56 26 35 45
121 45 202 -1 111 -1 113 -12 113 -6 0 -8 4 -5 9 3 5 -12 36 -34 70 -22 34
-40 63 -40 65 0 2 -20 25 -45 50 -44 46 -69 59 -59 31z"/>
<path d="M5860 8037 c-8 -7 -26 -28 -39 -48 -36 -54 -90 -84 -234 -128 -74
-23 -119 -25 -215 -11 -70 10 -112 0 -112 -25 0 -8 -4 -15 -8 -15 -5 0 -15
-18 -22 -40 -7 -22 -16 -40 -20 -40 -3 0 -12 -16 -20 -35 -8 -21 -25 -40 -42
-47 -15 -7 -28 -16 -28 -20 0 -5 -23 -8 -50 -8 -48 0 -84 14 -118 47 -7 7 -17
13 -22 13 -4 0 -10 9 -13 20 -7 26 -43 26 -57 0 -9 -17 -7 -26 12 -50 13 -16
33 -32 46 -36 12 -3 22 -10 22 -14 0 -13 41 -19 134 -21 53 -1 92 3 99 10 6 6
19 11 29 11 10 0 18 3 18 8 0 4 20 29 44 55 24 26 39 50 33 54 -5 3 -3 10 7
15 9 5 16 15 16 22 0 8 7 19 15 26 8 7 13 15 10 19 -2 4 28 3 67 -2 59 -8 89
-5 177 13 58 12 110 26 116 31 5 5 17 9 26 9 22 0 117 49 145 75 30 29 39 87
17 108 -14 12 -21 13 -33 4z"/>
<path d="M7180 6649 c0 -5 5 -7 10 -4 6 3 10 8 10 11 0 2 -4 4 -10 4 -5 0 -10
-5 -10 -11z"/>
<path d="M7255 6650 c11 -4 27 -5 35 -2 13 5 13 4 0 -14 -14 -18 -14 -18 2 -5
15 11 19 11 24 -3 3 -9 11 -16 17 -16 6 0 1 11 -12 23 -14 15 -33 24 -54 24
-25 1 -28 -1 -12 -7z"/>
<path d="M7210 6619 c0 -5 7 -9 15 -9 8 0 17 0 20 0 16 0 2 15 -15 16 -11 1
-20 -3 -20 -7z"/>
<path d="M6990 6610 c-13 -8 -13 -10 2 -10 9 0 20 5 23 10 8 13 -5 13 -25 0z"/>
<path d="M7300 6604 c0 -9 9 -18 21 -21 14 -4 17 -8 9 -13 -7 -4 0 -7 16 -7
l28 0 -24 18 c-14 11 -31 24 -37 29 -10 8 -13 6 -13 -6z"/>
<path d="M7010 6593 c-21 -11 -22 -13 -5 -12 11 1 31 4 45 8 23 6 23 8 5 12
-11 3 -31 -1 -45 -8z"/>
<path d="M6921 6571 c-10 -7 -7 -9 12 -8 14 1 23 5 20 10 -6 9 -15 9 -32 -2z"/>
<path d="M7280 6572 c0 -5 7 -9 15 -9 8 0 12 4 9 9 -3 4 -9 8 -15 8 -5 0 -9
-4 -9 -8z"/>
<path d="M6998 6563 c7 -3 16 -2 19 1 4 3 -2 6 -13 5 -11 0 -14 -3 -6 -6z"/>
<path d="M7360 6528 c0 -12 7 -18 23 -17 15 0 17 2 7 6 -8 3 -18 11 -22 17 -5
7 -8 4 -8 -6z"/>
<path d="M7395 6490 c3 -5 8 -10 11 -10 2 0 4 5 4 10 0 6 -5 10 -11 10 -5 0
-7 -4 -4 -10z"/>
<path d="M7490 6445 c22 -23 16 -37 -6 -15 -6 6 -10 4 -10 -8 0 -20 33 -25 40
-6 5 13 -25 54 -39 54 -5 0 2 -11 15 -25z"/>
<path d="M6660 6409 c0 -5 5 -7 10 -4 6 3 10 8 10 11 0 2 -4 4 -10 4 -5 0 -10
-5 -10 -11z"/>
<path d="M6599 6353 c-13 -16 -12 -17 4 -4 16 13 21 21 13 21 -2 0 -10 -8 -17
-17z"/>
<path d="M6610 6335 c-11 -13 -10 -15 4 -9 10 4 18 0 22 -10 9 -23 24 -20 24
5 0 12 -4 18 -11 13 -6 -3 -15 -1 -19 5 -5 9 -10 8 -20 -4z"/>
<path d="M7360 6310 c0 -5 5 -10 10 -10 6 0 10 5 10 10 0 6 -4 10 -10 10 -5 0
-10 -4 -10 -10z"/>
<path d="M7390 6285 c0 -6 11 -11 24 -10 37 0 41 12 6 17 -18 3 -30 0 -30 -7z"/>
<path d="M7210 6210 c-12 -8 -10 -10 10 -9 14 0 34 4 45 9 17 7 16 9 -10 9
-16 0 -37 -4 -45 -9z"/>
<path d="M7100 6150 c0 -5 5 -10 11 -10 5 0 7 5 4 10 -3 6 -8 10 -11 10 -2 0
-4 -4 -4 -10z"/>
<path d="M6451 6096 c-10 -12 -8 -17 10 -26 12 -7 19 -8 15 -2 -3 6 -2 13 4
17 11 7 4 25 -9 25 -5 0 -14 -6 -20 -14z"/>
<path d="M6725 6070 c-3 -5 -1 -10 4 -10 6 0 11 5 11 10 0 6 -2 10 -4 10 -3 0
-8 -4 -11 -10z"/>
<path d="M6858 6072 c-10 -2 -18 -8 -18 -13 0 -12 17 -12 25 1 3 5 12 7 20 3
8 -3 15 -1 15 4 0 10 -13 12 -42 5z"/>
<path d="M6806 6034 c-9 -24 -7 -27 9 -10 17 17 19 26 6 26 -5 0 -12 -7 -15
-16z"/>
<path d="M6466 6025 c-3 -9 -5 -31 -5 -48 1 -27 3 -24 9 13 8 48 6 61 -4 35z"/>
<path d="M6653 5913 c-7 -2 -13 -10 -13 -16 0 -8 4 -7 12 1 21 21 32 13 12
-10 l-19 -23 22 19 c30 25 20 43 -14 29z"/>
<path d="M6452 5845 c-10 -12 -10 -15 2 -15 7 0 16 7 20 15 7 19 -5 19 -22 0z"/>
<path d="M6455 5810 c4 -6 11 -8 16 -5 14 9 11 15 -7 15 -8 0 -12 -5 -9 -10z"/>
<path d="M6486 5722 c-3 -5 1 -9 9 -9 8 0 15 4 15 9 0 4 -4 8 -9 8 -6 0 -12
-4 -15 -8z"/>
<path d="M5181 6384 c0 -11 3 -14 6 -6 3 7 2 16 -1 19 -3 4 -6 -2 -5 -13z"/>
<path d="M5178 6353 c7 -3 16 -2 19 1 4 3 -2 6 -13 5 -11 0 -14 -3 -6 -6z"/>
<path d="M4426 6492 c-3 -5 1 -9 9 -9 8 0 12 4 9 9 -3 4 -7 8 -9 8 -2 0 -6 -4
-9 -8z"/>
<path d="M4422 6420 c0 -14 2 -19 5 -12 2 6 2 18 0 25 -3 6 -5 1 -5 -13z"/>
<path d="M4566 6423 c-11 -11 -7 -20 9 -20 8 0 15 4 15 8 0 11 -16 20 -24 12z"/>
<path d="M4640 6350 c0 -5 5 -10 11 -10 5 0 7 5 4 10 -3 6 -8 10 -11 10 -2 0
-4 -4 -4 -10z"/>
<path d="M4271 6283 c0 -13 2 -14 6 -4 4 10 9 5 17 -15 8 -19 15 -24 20 -16 4
7 2 12 -3 12 -6 0 -11 9 -11 20 0 11 -7 20 -15 20 -8 0 -15 -8 -14 -17z"/>
<path d="M4290 6101 c0 -11 4 -22 9 -25 4 -3 6 6 3 19 -5 30 -12 33 -12 6z"/>
<path d="M4720 6099 c0 -5 5 -7 10 -4 6 3 10 8 10 11 0 2 -4 4 -10 4 -5 0 -10
-5 -10 -11z"/>
<path d="M4748 6083 c7 -3 16 -2 19 1 4 3 -2 6 -13 5 -11 0 -14 -3 -6 -6z"/>
<path d="M4383 6025 c7 -13 14 -20 15 -14 5 14 -6 39 -17 39 -5 0 -4 -11 2
-25z"/>
<path d="M4806 6010 c1 -44 14 -50 14 -7 0 21 -3 37 -7 37 -5 0 -8 -14 -7 -30z"/>
<path d="M4830 6011 c0 -6 4 -13 10 -16 6 -3 7 1 4 9 -7 18 -14 21 -14 7z"/>
<path d="M4505 5990 c28 -4 53 -4 58 0 4 3 -18 7 -50 7 l-58 1 50 -8z"/>
<path d="M4580 5989 c0 -5 5 -7 10 -4 6 3 10 8 10 11 0 2 -4 4 -10 4 -5 0 -10
-5 -10 -11z"/>
<path d="M4668 5983 c7 -3 16 -2 19 1 4 3 -2 6 -13 5 -11 0 -14 -3 -6 -6z"/>
<path d="M4630 5960 c0 -5 10 -10 23 -10 18 0 19 2 7 10 -19 13 -30 13 -30 0z"/>
<path d="M4760 5916 c0 -2 9 -6 20 -9 11 -3 18 -1 14 4 -5 9 -34 13 -34 5z"/>
<path d="M5836 6322 c-3 -6 -1 -14 5 -17 15 -10 25 3 12 16 -7 7 -13 7 -17 1z"/>
<path d="M5878 6293 c-10 -2 -18 -8 -18 -12 0 -13 24 -31 41 -31 16 0 46 27
38 34 -9 8 -45 13 -61 9z m35 -20 c-7 -2 -19 -2 -25 0 -7 3 -2 5 12 5 14 0 19
-2 13 -5z"/>
<path d="M6130 6360 c0 -5 9 -10 20 -10 11 0 20 5 20 10 0 6 -9 10 -20 10 -11
0 -20 -4 -20 -10z"/>
<path d="M6160 6331 c0 -6 4 -12 10 -16 5 -3 7 -12 4 -19 -3 -8 0 -17 7 -22 8
-4 10 -3 5 4 -4 6 2 19 13 29 11 9 18 20 15 25 -7 11 -54 10 -54 -1z"/>
<path d="M6135 6310 c3 -5 8 -10 11 -10 2 0 4 5 4 10 0 6 -5 10 -11 10 -5 0
-7 -4 -4 -10z"/>
<path d="M6282 6378 c2 -13 8 -23 13 -23 6 0 11 10 13 23 2 15 -2 22 -13 22
-11 0 -15 -7 -13 -22z"/>
<path d="M5835 6119 c-15 -6 -11 -8 19 -8 30 -1 37 -4 32 -16 -3 -9 0 -15 10
-15 25 0 12 33 -16 40 -14 4 -34 3 -45 -1z"/>
<path d="M6058 6113 c7 -3 16 -2 19 1 4 3 -2 6 -13 5 -11 0 -14 -3 -6 -6z"/>
<path d="M6128 6113 c6 -2 18 -2 25 0 6 3 1 5 -13 5 -14 0 -19 -2 -12 -5z"/>
<path d="M6255 6110 c3 -5 8 -10 11 -10 2 0 4 5 4 10 0 6 -5 10 -11 10 -5 0
-7 -4 -4 -10z"/>
<path d="M5948 6103 c7 -3 16 -2 19 1 4 3 -2 6 -13 5 -11 0 -14 -3 -6 -6z"/>
<path d="M6275 6093 l-30 -14 30 6 c31 7 41 12 34 19 -2 2 -17 -3 -34 -11z"/>
<path d="M6325 6085 c0 -13 3 -21 8 -18 4 2 7 10 7 18 0 8 -3 16 -7 18 -5 3
-8 -5 -8 -18z"/>
<path d="M5816 6083 c4 -17 1 -23 -12 -23 -13 0 -14 -3 -4 -15 7 -8 18 -15 24
-15 6 0 4 5 -4 10 -13 9 -7 14 13 11 4 0 6 2 6 7 -4 22 3 31 19 25 14 -5 15
-3 5 7 -10 10 -15 11 -27 1 -11 -9 -15 -9 -20 1 -3 7 -3 3 0 -9z"/>
<path d="M6028 6093 c7 -3 16 -2 19 1 4 3 -2 6 -13 5 -11 0 -14 -3 -6 -6z"/>
<path d="M6097 6087 c13 -6 32 -6 50 0 25 9 23 10 -22 10 -39 0 -45 -2 -28
-10z"/>
<path d="M5798 6003 c-4 -13 1 -18 18 -19 16 -1 22 3 21 17 -1 10 -5 19 -10
19 -5 0 -6 -8 -3 -17 6 -17 5 -17 -8 0 -13 17 -14 17 -18 0z"/>
<path d="M6285 5790 c2 -27 15 -38 15 -12 0 11 -4 23 -8 26 -5 3 -8 -4 -7 -14z"/>
<path d="M6312 5714 c-11 -12 -10 -18 3 -36 12 -18 15 -19 15 -6 0 9 4 18 9
20 5 2 4 10 -2 19 -10 14 -14 14 -25 3z"/>
<path d="M5820 5409 c0 -5 5 -7 10 -4 6 3 10 8 10 11 0 2 -4 4 -10 4 -5 0 -10
-5 -10 -11z"/>
<path d="M5862 5244 c2 -22 8 -38 13 -36 15 3 12 65 -3 70 -10 3 -13 -6 -10
-34z m15 -26 c-3 -8 -6 -5 -6 6 -1 11 2 17 5 13 3 -3 4 -12 1 -19z"/>
<path d="M5890 5107 c27 -15 36 -14 25 2 -3 6 -16 11 -28 11 -21 0 -21 -1 3
-13z"/>
<path d="M5891 5054 c0 -11 3 -14 6 -6 3 7 2 16 -1 19 -3 4 -6 -2 -5 -13z"/>
<path d="M6595 5051 c-3 -6 4 -9 15 -8 11 1 20 5 20 9 0 11 -28 10 -35 -1z"/>
<path d="M5870 4990 c0 -10 6 -21 13 -23 9 -4 9 -6 -1 -6 -10 -1 -10 -4 2 -16
20 -20 32 -19 15 2 -12 15 -12 16 6 10 16 -6 15 -3 -5 13 l-25 21 24 -6 c14
-5 21 -3 17 3 -3 5 -15 12 -26 15 -15 4 -20 0 -20 -13z"/>
<path d="M6667 4973 c3 -7 9 -13 13 -13 4 0 10 6 13 13 3 7 -3 13 -13 13 -10
0 -16 -6 -13 -13z"/>
<path d="M5886 4911 c-4 -6 -3 -11 3 -11 14 0 26 -63 12 -68 -15 -5 -14 -19 2
-25 10 -4 13 6 13 37 -1 46 -19 86 -30 67z"/>
<path d="M6732 4900 c0 -14 2 -19 5 -12 2 6 2 18 0 25 -3 6 -5 1 -5 -13z"/>
<path d="M6356 4847 c3 -10 9 -15 12 -12 3 3 0 11 -7 18 -10 9 -11 8 -5 -6z"/>
<path d="M6170 4781 c0 -6 5 -13 10 -16 6 -3 10 1 10 9 0 9 -4 16 -10 16 -5 0
-10 -4 -10 -9z"/>
<path d="M7625 4722 c2 -3 -5 -13 -17 -24 -17 -14 -19 -21 -10 -30 9 -9 12 -8
12 5 0 9 5 17 10 17 6 0 10 -5 10 -11 0 -5 5 -7 11 -3 8 4 7 9 -2 16 -11 7
-11 11 -1 15 17 7 15 20 -3 20 -8 0 -13 -3 -10 -5z"/>
<path d="M7620 4646 c0 -8 7 -22 16 -30 22 -22 31 -20 11 2 -10 10 -14 21 -11
24 3 3 1 9 -5 13 -6 3 -11 -1 -11 -9z"/>
<path d="M7599 4632 c5 -9 8 -41 7 -69 -1 -28 2 -50 5 -47 4 2 6 28 4 57 -3
74 -4 77 -15 77 -7 0 -7 -6 -1 -18z"/>
<path d="M7415 4550 c4 -6 11 -8 16 -5 14 9 11 15 -7 15 -8 0 -12 -5 -9 -10z"/>
<path d="M7522 4510 c0 -14 2 -19 5 -12 2 6 2 18 0 25 -3 6 -5 1 -5 -13z"/>
<path d="M6162 4450 c0 -14 2 -19 5 -12 2 6 2 18 0 25 -3 6 -5 1 -5 -13z"/>
<path d="M6167 4406 c-4 -10 -1 -13 9 -9 15 6 19 23 5 23 -5 0 -11 -7 -14 -14z"/>
<path d="M5930 4386 c0 -23 20 -30 37 -13 10 10 11 17 4 21 -6 4 -11 0 -11 -8
0 -9 -5 -16 -11 -16 -6 0 -9 7 -5 15 3 8 1 15 -4 15 -6 0 -10 -6 -10 -14z"/>
<path d="M6190 4369 c0 -5 5 -7 10 -4 6 3 10 8 10 11 0 2 -4 4 -10 4 -5 0 -10
-5 -10 -11z"/>
<path d="M5982 4357 c-7 -8 -7 -17 2 -29 11 -15 13 -14 13 12 0 34 -1 35 -15
17z"/>
<path d="M7250 4350 c0 -6 4 -9 9 -6 5 4 12 1 14 -4 3 -6 4 -5 3 2 -3 15 -26
23 -26 8z"/>
<path d="M5950 4331 c0 -5 5 -13 10 -16 6 -3 10 -17 10 -31 0 -15 6 -24 15
-24 8 0 15 5 15 11 0 5 -4 7 -10 4 -5 -3 -10 3 -10 15 0 12 -7 28 -15 36 -8 9
-15 11 -15 5z"/>
<path d="M5940 4296 c0 -8 5 -18 10 -21 6 -3 10 1 10 9 0 8 -4 18 -10 21 -5 3
-10 -1 -10 -9z"/>
<path d="M7560 4285 c0 -8 5 -15 10 -15 6 0 10 7 10 15 0 8 -4 15 -10 15 -5 0
-10 -7 -10 -15z"/>
<path d="M7085 4250 c3 -5 8 -10 11 -10 2 0 4 5 4 10 0 6 -5 10 -11 10 -5 0
-7 -4 -4 -10z"/>
<path d="M6247 4239 c7 -7 15 -10 18 -7 3 3 -2 9 -12 12 -14 6 -15 5 -6 -5z"/>
<path d="M7168 4243 c6 -2 18 -2 25 0 6 3 1 5 -13 5 -14 0 -19 -2 -12 -5z"/>
<path d="M6280 4185 c0 -8 7 -15 15 -15 9 0 12 6 9 15 -4 8 -10 15 -15 15 -5
0 -9 -7 -9 -15z"/>
<path d="M7170 4150 c-13 -9 -13 -10 0 -10 8 0 22 5 30 10 13 9 13 10 0 10 -8
0 -22 -5 -30 -10z"/>
<path d="M7243 4153 c9 -2 23 -2 30 0 6 3 -1 5 -18 5 -16 0 -22 -2 -12 -5z"/>
<path d="M7527 4140 c3 -11 9 -17 15 -14 5 3 4 12 -3 20 -16 19 -18 18 -12 -6z"/>
<path d="M5987 4135 c3 -10 1 -20 -6 -24 -9 -6 -9 -10 1 -19 10 -8 13 -4 15
19 1 15 -2 31 -7 34 -6 3 -7 -1 -3 -10z"/>
<path d="M6433 4120 c16 -5 34 -13 40 -18 14 -11 100 -21 89 -10 -4 3 -23 9
-42 11 -19 2 1 3 45 1 50 -3 73 -1 60 5 -11 4 -65 11 -120 14 -62 3 -89 2 -72
-3z"/>
<path d="M7376 4121 c-3 -5 3 -11 15 -14 16 -4 18 -3 8 9 -13 16 -16 17 -23 5z"/>
<path d="M6698 4113 c7 -3 16 -2 19 1 4 3 -2 6 -13 5 -11 0 -14 -3 -6 -6z"/>
<path d="M7205 4110 c3 -5 10 -10 16 -10 5 0 9 5 9 10 0 6 -7 10 -16 10 -8 0
-12 -4 -9 -10z"/>
<path d="M7240 4110 c0 -5 9 -10 20 -10 11 0 20 5 20 10 0 6 -9 10 -20 10 -11
0 -20 -4 -20 -10z"/>
<path d="M7458 4103 c12 -2 30 -2 40 0 9 3 -1 5 -23 4 -22 0 -30 -2 -17 -4z"/>
<path d="M6410 4090 c8 -5 24 -9 35 -9 l20 0 -20 9 c-11 5 -27 9 -35 9 -13 1
-13 0 0 -9z"/>
<path d="M6675 4079 l-40 -6 35 -2 c19 -1 46 -4 60 -6 14 -3 18 -2 10 1 -8 4
-17 10 -20 13 -3 3 -23 3 -45 0z"/>
<path d="M6783 4064 c15 -9 24 -9 28 -2 4 6 12 7 18 4 6 -4 18 -3 26 1 10 6
-4 9 -40 9 -47 -1 -52 -2 -32 -12z"/>
<path d="M6921 4064 c0 -11 3 -14 6 -6 3 7 2 16 -1 19 -3 4 -6 -2 -5 -13z"/>
<path d="M6965 4070 l20 -7 -20 -6 c-11 -3 -2 -3 20 0 58 8 61 18 7 19 -30 1
-40 -1 -27 -6z"/>
<path d="M7283 4073 c9 -2 23 -2 30 0 6 3 -1 5 -18 5 -16 0 -22 -2 -12 -5z"/>
<path d="M6062 3994 c9 -3 19 -13 22 -22 3 -12 4 -12 3 3 -1 12 -10 21 -22 22
-15 1 -15 0 -3 -3z"/>
<path d="M6225 3990 c-3 -4 9 -13 27 -19 36 -13 105 -15 112 -3 2 4 -13 6 -34
4 -22 -2 -52 3 -69 11 -17 9 -33 12 -36 7z"/>
<path d="M6288 3987 c19 -6 40 -6 52 -1 15 7 7 9 -32 10 -50 0 -51 0 -20 -9z"/>
<path d="M6387 3988 c-7 -4 5 -8 26 -8 20 0 37 3 37 8 0 9 -48 9 -63 0z"/>
<path d="M6460 3996 c0 -2 7 -6 15 -10 8 -3 15 -1 15 4 0 6 -7 10 -15 10 -8 0
-15 -2 -15 -4z"/>
<path d="M6505 3990 c-3 -5 1 -10 10 -10 9 0 13 5 10 10 -3 6 -8 10 -10 10 -2
0 -7 -4 -10 -10z"/>
<path d="M7158 6053 c7 -3 16 -2 19 1 4 3 -2 6 -13 5 -11 0 -14 -3 -6 -6z"/>
<path d="M7110 6035 c-8 -9 -6 -14 4 -18 9 -4 18 -1 22 4 4 6 20 8 37 5 42 -9
27 4 -17 14 -25 5 -39 4 -46 -5z"/>
<path d="M7365 6040 c3 -5 11 -10 16 -10 6 0 7 5 4 10 -3 6 -11 10 -16 10 -6
0 -7 -4 -4 -10z"/>
<path d="M7066 6015 c-3 -8 -1 -15 3 -15 5 0 11 7 15 15 3 8 1 15 -3 15 -5 0
-11 -7 -15 -15z"/>
<path d="M7020 5935 c-8 -9 -8 -15 -2 -15 12 0 26 19 19 26 -2 2 -10 -2 -17
-11z"/>
<path d="M6839 5904 c-7 -9 -22 -20 -34 -25 -15 -7 -12 -8 13 -3 20 3 32 2 32
-5 0 -6 -8 -11 -17 -12 -15 0 -15 -2 2 -9 27 -12 43 -12 25 0 -12 8 -12 10 5
10 19 1 19 1 3 14 -21 15 -23 32 -5 39 7 4 8 6 1 6 -6 1 -18 -6 -25 -15z"/>
<path d="M6767 5856 c-4 -9 -3 -15 2 -11 5 3 12 -5 14 -17 l4 -23 2 23 c1 15
5 21 13 16 7 -4 8 -3 4 5 -4 6 -11 9 -16 6 -4 -3 -10 0 -12 7 -3 7 -7 5 -11
-6z"/>
<path d="M6746 5775 c-3 -8 -1 -15 4 -15 6 0 10 7 10 15 0 8 -2 15 -4 15 -2 0
-6 -7 -10 -15z"/>
<path d="M7210 5704 c0 -8 5 -12 10 -9 6 3 10 10 10 16 0 5 -4 9 -10 9 -5 0
-10 -7 -10 -16z"/>
<path d="M6612 5647 c-12 -15 -2 -41 18 -45 12 -3 13 -1 3 9 -7 7 -13 20 -13
29 0 13 1 13 10 0 6 -9 10 -10 10 -3 0 18 -16 24 -28 10z"/>
<path d="M6557 5623 c-10 -9 -9 -23 1 -23 5 0 9 7 9 15 0 17 -1 18 -10 8z"/>
<path d="M6580 5620 c0 -5 5 -10 10 -10 6 0 10 5 10 10 0 6 -4 10 -10 10 -5 0
-10 -4 -10 -10z"/>
<path d="M7040 5581 c0 -5 9 -7 20 -4 11 3 20 7 20 9 0 2 -9 4 -20 4 -11 0
-20 -4 -20 -9z"/>
<path d="M7110 5577 c0 -9 -11 -17 -27 -20 l-28 -4 28 -2 c26 -1 48 22 33 36
-3 4 -6 -1 -6 -10z"/>
<path d="M6963 5494 c0 -17 2 -22 7 -13 5 6 6 18 3 26 -8 19 -10 16 -10 -13z"/>
<path d="M6728 5433 c6 -2 18 -2 25 0 6 3 1 5 -13 5 -14 0 -19 -2 -12 -5z"/>
<path d="M6783 5433 c9 -2 17 -9 17 -14 0 -5 5 -9 11 -9 8 0 8 5 -1 15 -7 8
-20 14 -29 14 -13 -1 -13 -2 2 -6z"/>
<path d="M6495 5360 c10 -11 20 -18 23 -16 5 6 -23 36 -34 36 -4 0 1 -9 11
-20z"/>
<path d="M6536 5332 c-5 -18 -5 -36 -2 -39 3 -4 6 3 6 15 0 13 6 22 15 22 8 0
15 5 15 10 0 6 7 10 16 10 14 0 14 -3 4 -15 -16 -19 -5 -18 43 3 l38 17 -48 0
c-26 0 -53 -4 -60 -8 -6 -4 -13 -1 -16 5 -2 7 -7 -2 -11 -20z"/>
<path d="M6590 5295 c-11 -13 -10 -14 4 -9 9 3 16 10 16 15 0 13 -6 11 -20 -6z"/>
<path d="M5111 5981 c-9 -16 -8 -18 9 -14 11 3 20 12 20 19 0 20 -18 17 -29
-5z"/>
<path d="M5230 5975 c0 -15 18 -40 24 -34 3 3 -1 14 -9 25 -8 10 -14 15 -15 9z"/>
<path d="M4946 5925 c4 -8 8 -15 10 -15 2 0 4 7 4 15 0 8 -4 15 -10 15 -5 0
-7 -7 -4 -15z"/>
<path d="M4970 5930 c0 -5 5 -10 10 -10 6 0 10 5 10 10 0 6 -4 10 -10 10 -5 0
-10 -4 -10 -10z"/>
<path d="M5288 5813 c7 -3 16 -2 19 1 4 3 -2 6 -13 5 -11 0 -14 -3 -6 -6z"/>
<path d="M5005 5770 c-3 -5 -2 -10 4 -10 5 0 13 5 16 10 3 6 2 10 -4 10 -5 0
-13 -4 -16 -10z"/>
<path d="M5058 5753 c6 -2 18 -2 25 0 6 3 1 5 -13 5 -14 0 -19 -2 -12 -5z"/>
<path d="M5111 5704 c0 -11 3 -14 6 -6 3 7 2 16 -1 19 -3 4 -6 -2 -5 -13z"/>
<path d="M5104 5669 c-3 -6 -2 -15 3 -20 5 -5 9 -1 9 11 0 23 -2 24 -12 9z"/>
<path d="M5377 5569 c4 -13 8 -18 11 -10 2 7 -1 18 -6 23 -8 8 -9 4 -5 -13z"/>
<path d="M5390 5529 c0 -5 -4 -8 -9 -5 -14 9 -22 -37 -8 -46 9 -6 8 -11 -3
-19 -13 -9 -13 -10 0 -6 10 3 14 14 12 33 -2 20 0 25 6 15 7 -9 10 -6 10 13 0
14 -2 26 -4 26 -2 0 -4 -5 -4 -11z"/>
<path d="M5152 5480 c0 -14 2 -19 5 -12 2 6 2 18 0 25 -3 6 -5 1 -5 -13z"/>
<path d="M5182 5480 c0 -14 2 -19 5 -12 2 6 2 18 0 25 -3 6 -5 1 -5 -13z"/>
<path d="M5395 5450 c-7 -32 4 -50 30 -50 6 1 2 5 -7 11 -19 11 -24 35 -8 41
5 2 6 9 1 17 -6 10 -11 5 -16 -19z"/>
<path d="M5378 5389 c14 -18 62 -32 62 -18 0 5 -10 9 -23 9 -13 0 -29 6 -37
13 -12 10 -12 9 -2 -4z"/>
<path d="M5140 5253 c1 -29 50 -49 57 -23 4 13 3 13 -7 0 -10 -12 -11 -11 -7
8 6 26 -9 30 -16 5 -4 -17 -5 -17 -6 0 -1 16 -21 26 -21 10z"/>
<path d="M5239 5174 c-5 -32 13 -59 34 -51 8 4 8 6 -2 6 -9 1 -10 5 -3 14 5 7
6 21 1 32 -7 18 -8 18 -9 -5 -2 -23 -3 -23 -9 5 l-7 30 -5 -31z"/>
<path d="M5456 5166 c3 -8 1 -16 -3 -19 -9 -6 -9 -64 0 -73 2 -2 10 2 17 11 8
10 9 15 1 15 -6 0 -11 11 -11 25 0 14 4 25 10 25 5 0 7 7 4 15 -4 8 -10 15
-15 15 -4 0 -6 -6 -3 -14z"/>
<path d="M5187 5143 c-12 -12 -7 -23 11 -23 13 0 14 2 3 9 -11 7 -11 9 0 14 8
3 9 6 3 6 -6 1 -14 -2 -17 -6z"/>
<path d="M5111 5104 c0 -11 3 -14 6 -6 3 7 2 16 -1 19 -3 4 -6 -2 -5 -13z"/>
<path d="M5076 5074 c-10 -37 -2 -39 11 -4 6 17 8 30 3 30 -4 0 -11 -12 -14
-26z"/>
<path d="M5022 5075 c-8 -10 -9 -15 -2 -15 6 0 9 -4 6 -8 -3 -5 1 -9 9 -9 18
0 20 13 3 20 -8 3 -6 6 5 6 9 1 17 6 17 11 0 15 -23 11 -38 -5z"/>
<path d="M5100 5049 c0 -5 5 -7 10 -4 6 3 10 8 10 11 0 2 -4 4 -10 4 -5 0 -10
-5 -10 -11z"/>
<path d="M4920 5003 c-23 -23 -23 -24 -3 -14 22 11 38 30 32 35 -2 2 -15 -8
-29 -21z"/>
<path d="M5015 5021 c-12 -11 -3 -21 20 -21 14 0 25 6 25 13 0 12 -35 18 -45
8z"/>
<path d="M4930 4980 c-23 -18 -24 -19 -3 -14 12 3 24 12 27 20 7 18 6 18 -24
-6z"/>
<path d="M4870 4957 c0 -27 -28 -57 -53 -57 -9 0 -18 -4 -21 -8 -3 -5 8 -6 25
-4 16 2 29 9 29 14 0 6 7 7 16 4 8 -3 13 -2 10 3 -3 4 -1 22 4 40 5 19 5 31
-1 31 -5 0 -9 -11 -9 -23z"/>
<path d="M4820 4925 c-8 -9 -8 -15 -2 -15 12 0 26 19 19 26 -2 2 -10 -2 -17
-11z"/>
<path d="M5460 4852 c0 -13 -4 -20 -10 -17 -5 3 -10 2 -10 -3 0 -6 7 -12 15
-16 9 -3 15 0 15 9 0 8 8 15 18 16 13 0 14 2 2 6 -8 3 -18 11 -22 17 -5 6 -8
1 -8 -12z"/>
<path d="M4730 4850 c-8 -5 -16 -14 -16 -20 -1 -5 -2 -16 -3 -22 -1 -10 -3
-10 -9 0 -6 8 -13 1 -25 -23 -9 -19 -13 -35 -8 -35 5 0 14 12 19 28 8 22 11
23 12 7 1 -19 2 -19 10 2 6 16 15 20 32 17 21 -4 21 -4 3 5 -19 9 -19 10 2 10
12 1 24 -4 26 -9 3 -6 4 -5 3 2 -1 7 -16 15 -32 16 l-29 4 25 14 c14 7 21 13
15 13 -5 1 -17 -4 -25 -9z"/>
<path d="M4770 4852 c0 -5 7 -15 15 -22 8 -7 15 -8 15 -2 0 5 -7 15 -15 22 -8
7 -15 8 -15 2z"/>
<path d="M4814 4811 c7 -10 31 -9 42 2 4 4 -5 7 -20 7 -15 0 -25 -4 -22 -9z"/>
<path d="M4676 4722 c-2 -4 -1 -14 4 -21 9 -16 40 -7 40 11 0 10 -2 10 -9 -1
-5 -7 -14 -10 -20 -7 -6 4 -9 12 -6 17 4 5 4 9 1 9 -3 0 -7 -4 -10 -8z"/>
<path d="M5447 4709 c4 -13 8 -18 11 -10 2 7 -1 18 -6 23 -8 8 -9 4 -5 -13z"/>
<path d="M5469 4688 c-1 -7 0 -26 1 -41 1 -16 -7 -38 -17 -49 -17 -21 -17 -21
1 -15 12 5 23 1 32 -10 13 -17 13 -17 14 0 0 9 -4 17 -10 17 -5 0 -10 20 -10
45 0 25 5 45 11 45 5 0 7 5 4 10 -9 14 -25 12 -26 -2z"/>
<path d="M4863 4603 c9 -2 23 -2 30 0 6 3 -1 5 -18 5 -16 0 -22 -2 -12 -5z"/>
<path d="M5450 4561 c0 -5 5 -13 10 -16 6 -3 10 -2 10 4 0 5 -4 13 -10 16 -5
3 -10 2 -10 -4z"/>
<path d="M5480 4525 c0 -14 2 -25 4 -25 2 0 6 11 8 25 3 14 1 25 -3 25 -5 0
-9 -11 -9 -25z"/>
<path d="M5447 4480 c-6 -23 16 -59 27 -42 3 6 -1 15 -10 20 -11 6 -13 11 -5
16 13 8 15 26 2 26 -5 0 -11 -9 -14 -20z"/>
<path d="M5442 4415 c-2 -23 14 -52 23 -44 11 12 14 49 3 49 -5 0 -8 -7 -4
-15 3 -8 1 -15 -4 -15 -5 0 -11 10 -13 23 -4 19 -4 19 -5 2z"/>
<path d="M5445 4349 c-4 -6 -5 -12 -2 -15 2 -3 7 2 10 11 7 17 1 20 -8 4z"/>
<path d="M5466 4313 c4 -22 3 -25 -5 -13 -9 13 -11 13 -11 -2 0 -9 -3 -25 -6
-35 -5 -15 -4 -15 5 -3 9 13 11 11 11 -7 0 -12 -4 -25 -10 -28 -5 -3 -10 -14
-9 -23 0 -14 2 -14 6 -2 3 8 10 18 16 21 12 9 18 119 6 119 -5 0 -7 -12 -3
-27z"/>
<path d="M5271 4304 c0 -11 3 -14 6 -6 3 7 2 16 -1 19 -3 4 -6 -2 -5 -13z"/>
<path d="M5230 4264 c0 -8 5 -12 10 -9 6 3 10 10 10 16 0 5 -4 9 -10 9 -5 0
-10 -7 -10 -16z"/>
<path d="M5170 4220 c0 -5 5 -10 10 -10 6 0 10 5 10 10 0 6 -4 10 -10 10 -5 0
-10 -4 -10 -10z"/>
<path d="M5467 4203 c-11 -10 -8 -45 2 -38 6 3 9 14 8 25 -1 23 -1 22 -10 13z"/>
<path d="M5465 4130 c-3 -5 -1 -10 4 -10 6 0 11 5 11 10 0 6 -2 10 -4 10 -3 0
-8 -4 -11 -10z"/>
<path d="M4500 4100 c0 -5 8 -10 18 -10 14 0 15 -2 2 -10 -13 -8 -12 -10 3
-10 20 0 22 11 5 28 -15 15 -28 16 -28 2z"/>
<path d="M5450 4100 c-13 -8 -12 -10 3 -10 9 0 17 5 17 10 0 12 -1 12 -20 0z"/>
<path d="M5105 4090 c-3 -5 -1 -10 4 -10 6 0 11 5 11 10 0 6 -2 10 -4 10 -3 0
-8 -4 -11 -10z"/>
<path d="M4578 4083 c7 -3 16 -2 19 1 4 3 -2 6 -13 5 -11 0 -14 -3 -6 -6z"/>
<path d="M4540 4027 c0 -20 5 -39 11 -42 5 -4 14 -18 20 -32 5 -13 14 -23 21
-21 21 7 20 26 -2 33 -11 3 -18 11 -15 16 4 5 0 9 -8 9 -9 0 -14 11 -15 31 -1
44 -12 50 -12 6z"/>
<path d="M4650 4025 c-8 -9 -9 -15 -2 -15 6 0 14 5 17 10 7 11 42 9 62 -3 6
-4 14 -3 17 2 14 22 -76 28 -94 6z"/>
<path d="M4916 4024 c-11 -7 -18 -16 -15 -18 2 -2 13 2 23 10 11 7 18 16 15
18 -2 2 -13 -2 -23 -10z"/>
<path d="M4790 4019 c0 -5 5 -7 10 -4 6 3 10 8 10 11 0 2 -4 4 -10 4 -5 0 -10
-5 -10 -11z"/>
<path d="M5061 3979 c-13 -11 -17 -19 -10 -19 19 1 52 27 42 33 -4 3 -19 -3
-32 -14z"/>
<path d="M5110 3991 c0 -6 4 -13 10 -16 6 -3 7 1 4 9 -7 18 -14 21 -14 7z"/>
<path d="M5216 3988 c3 -4 -12 -9 -33 -10 -37 -1 -37 -1 -5 -5 17 -2 32 -8 32
-13 0 -4 10 -6 22 -2 21 5 21 6 2 13 -16 7 -17 8 -1 8 23 1 22 17 -2 17 -11 0
-17 -4 -15 -8z"/>
<path d="M5325 3992 c3 -3 26 -7 51 -8 26 -2 43 0 40 3 -4 4 -27 8 -51 8 -25
1 -43 0 -40 -3z"/>
<path d="M4610 3980 c0 -5 5 -10 11 -10 5 0 7 5 4 10 -3 6 -8 10 -11 10 -2 0
-4 -4 -4 -10z"/>
<path d="M5083 3955 c-19 -21 -16 -27 7 -13 11 7 20 16 20 20 0 12 -14 9 -27
-7z"/>
<path d="M4625 3950 c3 -5 8 -10 11 -10 2 0 4 5 4 10 0 6 -5 10 -11 10 -5 0
-7 -4 -4 -10z"/>
<path d="M5133 3953 c9 -2 23 -2 30 0 6 3 -1 5 -18 5 -16 0 -22 -2 -12 -5z"/>
<path d="M4943 3913 c9 -2 23 -2 30 0 6 3 -1 5 -18 5 -16 0 -22 -2 -12 -5z"/>
<path d="M6978 5978 c-21 -21 -10 -24 17 -5 10 8 14 16 9 19 -5 3 -17 -3 -26
-14z"/>
<path d="M4650 5810 c-9 -6 -10 -10 -3 -10 6 0 15 5 18 10 8 12 4 12 -15 0z"/>
<path d="M4806 5758 c3 -5 10 -6 15 -3 13 9 11 12 -6 12 -8 0 -12 -4 -9 -9z"/>
<path d="M4808 5733 c7 -3 16 -2 19 1 4 3 -2 6 -13 5 -11 0 -14 -3 -6 -6z"/>
<path d="M4813 5713 c9 -2 23 -2 30 0 6 3 -1 5 -18 5 -16 0 -22 -2 -12 -5z"/>
<path d="M4800 5696 c0 -2 7 -7 16 -10 8 -3 12 -2 9 4 -6 10 -25 14 -25 6z"/>
<path d="M4861 5697 c2 -2 12 -9 22 -16 14 -11 17 -11 17 1 0 7 -10 14 -21 15
-12 1 -20 1 -18 0z"/>
<path d="M4400 5670 c0 -5 5 -10 10 -10 6 0 10 5 10 10 0 6 -4 10 -10 10 -5 0
-10 -4 -10 -10z"/>
<path d="M4465 5660 c3 -5 8 -10 11 -10 2 0 4 5 4 10 0 6 -5 10 -11 10 -5 0
-7 -4 -4 -10z"/>
<path d="M4890 5650 c20 -13 33 -13 25 0 -3 6 -14 10 -23 10 -15 0 -15 -2 -2
-10z"/>
<path d="M4895 5620 c28 -12 37 -12 30 0 -3 6 -16 10 -28 9 -21 0 -21 -1 -2
-9z"/>
<path d="M4590 5596 c0 -2 11 -6 25 -8 14 -3 25 -1 25 3 0 5 -11 9 -25 9 -14
0 -25 -2 -25 -4z"/>
<path d="M4540 5580 c20 -13 40 -13 40 0 0 6 -12 10 -27 10 -22 0 -25 -2 -13
-10z"/>
<path d="M4980 5570 c0 -5 5 -10 10 -10 6 0 10 5 10 10 0 6 -4 10 -10 10 -5 0
-10 -4 -10 -10z"/>
<path d="M4978 5543 c6 -2 18 -2 25 0 6 3 1 5 -13 5 -14 0 -19 -2 -12 -5z"/>
<path d="M6445 5620 c-3 -6 1 -7 9 -4 18 7 21 14 7 14 -6 0 -13 -4 -16 -10z"/>
<path d="M4615 5390 c-4 -7 3 -8 22 -4 38 9 42 14 10 14 -14 0 -29 -5 -32 -10z"/>
<path d="M4703 5383 c9 -3 15 -8 12 -13 -3 -4 4 -6 15 -3 34 9 30 18 -9 19
-20 1 -28 -1 -18 -3z"/>
<path d="M4790 5382 c0 -6 -8 -13 -17 -15 -16 -4 -16 -5 -1 -6 18 -1 34 16 24
26 -3 4 -6 1 -6 -5z"/>
<path d="M4515 5300 c-3 -5 -2 -10 4 -10 5 0 13 5 16 10 3 6 2 10 -4 10 -5 0
-13 -4 -16 -10z"/>
<path d="M4965 5169 c-1 -15 3 -25 7 -23 5 3 6 10 3 15 -4 5 5 9 19 9 14 0 26
4 26 10 0 5 8 7 18 3 9 -3 14 -3 10 2 -4 4 -24 9 -45 10 -35 2 -38 0 -38 -26z"/>
<path d="M4520 5160 c0 -5 5 -10 10 -10 6 0 10 5 10 10 0 6 -4 10 -10 10 -5 0
-10 -4 -10 -10z"/>
<path d="M4898 5123 c7 -3 16 -2 19 1 4 3 -2 6 -13 5 -11 0 -14 -3 -6 -6z"/>
<path d="M4790 5110 c-25 -8 -25 -8 -2 -9 29 -1 19 -21 -11 -22 -19 -1 -19 -2
-3 -6 10 -3 23 0 29 6 18 18 31 13 16 -6 -13 -15 -12 -15 10 -3 l24 13 -23 12
c-17 9 -19 14 -9 18 21 8 -3 6 -31 -3z"/>
<path d="M4706 5101 c-3 -5 1 -12 10 -15 22 -8 25 -4 9 11 -8 7 -16 9 -19 4z"/>
<path d="M4638 5088 c5 -5 16 -8 23 -6 8 3 3 7 -10 11 -17 4 -21 3 -13 -5z"/>
<path d="M7075 5310 c-4 -6 6 -10 22 -10 21 0 24 -3 14 -9 -10 -6 1 -8 30 -4
56 7 63 13 16 13 -20 0 -39 5 -42 10 -3 6 -12 10 -20 10 -8 0 -17 -4 -20 -10z"/>
<path d="M6866 5292 c-3 -5 1 -9 9 -9 8 0 12 4 9 9 -3 4 -7 8 -9 8 -2 0 -6 -4
-9 -8z"/>
<path d="M7207 5279 c7 -7 15 -10 18 -7 3 3 -2 9 -12 12 -14 6 -15 5 -6 -5z"/>
<path d="M6770 5269 c0 -5 5 -7 10 -4 6 3 10 8 10 11 0 2 -4 4 -10 4 -5 0 -10
-5 -10 -11z"/>
<path d="M7230 5234 c0 -8 5 -12 10 -9 6 3 10 10 10 16 0 5 -4 9 -10 9 -5 0
-10 -7 -10 -16z"/>
<path d="M5945 2024 c-33 -13 -116 -43 -185 -65 -69 -22 -134 -44 -145 -49
-20 -9 -158 -42 -307 -75 -75 -16 -93 -27 -65 -38 31 -12 419 80 522 123 11 4
54 20 95 35 86 30 152 64 158 83 5 17 -4 15 -73 -14z"/>
<path d="M7880 1220 c-132 -35 -297 -47 -388 -27 -72 16 -92 4 -35 -20 59 -25
257 -27 365 -3 47 11 105 28 129 39 109 49 84 53 -71 11z"/>
</g>
</svg>
